<svg width="60" height="60" viewBox="0 0 60 60" fill="none" xmlns="http://www.w3.org/2000/svg">
<rect width="60" height="60" rx="8" fill="#FF7A21"/>
<rect width="60" height="60" rx="8" fill="white" fill-opacity="0.75"/>
<path d="M15.8403 18.6667C15.8403 17.8843 16.4746 17.25 17.257 17.25H42.757C43.5394 17.25 44.1737 17.8843 44.1737 18.6667V26.4583C42.2177 26.4583 40.632 28.044 40.632 30C40.632 31.956 42.2177 33.5417 44.1737 33.5417V41.3333C44.1737 42.1158 43.5394 42.75 42.757 42.75H17.257C16.4746 42.75 15.8403 42.1158 15.8403 41.3333V18.6667ZM24.4613 39.9167C24.753 39.0913 25.5401 38.5 26.4653 38.5C27.3906 38.5 28.1777 39.0913 28.4694 39.9167H41.3404V35.7123C39.2413 34.6692 37.7987 32.5031 37.7987 30C37.7987 27.4969 39.2413 25.3308 41.3404 24.2877V20.0833H28.4694C28.1777 20.9087 27.3906 21.5 26.4653 21.5C25.5401 21.5 24.753 20.9087 24.4613 20.0833H18.6737V39.9167H24.4613ZM26.4653 28.5833C25.2917 28.5833 24.3403 27.6319 24.3403 26.4583C24.3403 25.2847 25.2917 24.3333 26.4653 24.3333C27.6389 24.3333 28.5904 25.2847 28.5904 26.4583C28.5904 27.6319 27.6389 28.5833 26.4653 28.5833ZM26.4653 35.6667C25.2917 35.6667 24.3403 34.7152 24.3403 33.5417C24.3403 32.3681 25.2917 31.4167 26.4653 31.4167C27.6389 31.4167 28.5904 32.3681 28.5904 33.5417C28.5904 34.7152 27.6389 35.6667 26.4653 35.6667Z" fill="#FF7A21"/>
</svg>
