<svg width="60" height="60" viewBox="0 0 60 60" fill="none" xmlns="http://www.w3.org/2000/svg">
<rect width="60" height="60" rx="8" fill="#006DFF"/>
<rect width="60" height="60" rx="8" fill="white" fill-opacity="0.75"/>
<path d="M30.0002 44.1666C22.1761 44.1666 15.8335 37.8239 15.8335 29.9999C15.8335 22.1759 22.1761 15.8333 30.0002 15.8333C37.8241 15.8333 44.1668 22.1759 44.1668 29.9999C44.1668 37.8239 37.8241 44.1666 30.0002 44.1666ZM30.0002 41.3333C36.2594 41.3333 41.3335 36.2592 41.3335 29.9999C41.3335 23.7407 36.2594 18.6666 30.0002 18.6666C23.7409 18.6666 18.6668 23.7407 18.6668 29.9999C18.6668 36.2592 23.7409 41.3333 30.0002 41.3333ZM34.9585 25.0416L32.1252 32.1249L25.0418 34.9583L27.8752 27.8749L34.9585 25.0416Z" fill="#006DFF"/>
<path d="M30.0002 44.1666C22.1761 44.1666 15.8335 37.8239 15.8335 29.9999C15.8335 22.1759 22.1761 15.8333 30.0002 15.8333C37.8241 15.8333 44.1668 22.1759 44.1668 29.9999C44.1668 37.8239 37.8241 44.1666 30.0002 44.1666ZM30.0002 41.3333C36.2594 41.3333 41.3335 36.2592 41.3335 29.9999C41.3335 23.7407 36.2594 18.6666 30.0002 18.6666C23.7409 18.6666 18.6668 23.7407 18.6668 29.9999C18.6668 36.2592 23.7409 41.3333 30.0002 41.3333ZM34.9585 25.0416L32.1252 32.1249L25.0418 34.9583L27.8752 27.8749L34.9585 25.0416Z" fill="black" fill-opacity="0.25"/>
</svg>
