<svg width="60" height="60" viewBox="0 0 60 60" fill="none" xmlns="http://www.w3.org/2000/svg">
<rect width="60" height="60" rx="8" fill="#7DDB8B"/>
<rect width="60" height="60" rx="8" fill="white" fill-opacity="0.75"/>
<path d="M43.7791 17.1892L36.0537 44.2281C35.8398 44.9768 35.3799 45.0108 35.0378 44.3264L28.5831 31.417L15.7238 26.2732C15.0017 25.9844 15.0107 25.5522 15.772 25.2984L42.8108 16.2855C43.5595 16.0359 43.9889 16.455 43.7791 17.1892ZM39.9664 20.2202L22.6503 25.9923L30.6355 29.1863L34.9432 37.8016L39.9664 20.2202Z" fill="#7DDB8B"/>
<path d="M43.7791 17.1892L36.0537 44.2281C35.8398 44.9768 35.3799 45.0108 35.0378 44.3264L28.5831 31.417L15.7238 26.2732C15.0017 25.9844 15.0107 25.5522 15.772 25.2984L42.8108 16.2855C43.5595 16.0359 43.9889 16.455 43.7791 17.1892ZM39.9664 20.2202L22.6503 25.9923L30.6355 29.1863L34.9432 37.8016L39.9664 20.2202Z" fill="black" fill-opacity="0.25"/>
</svg>
