<svg width="60" height="60" viewBox="0 0 60 60" fill="none" xmlns="http://www.w3.org/2000/svg">
<rect width="60" height="60" rx="8" fill="#FFA600"/>
<rect width="60" height="60" rx="8" fill="white" fill-opacity="0.75"/>
<path d="M17.257 17.25H42.757C43.5394 17.25 44.1737 17.8843 44.1737 18.6667V41.3333C44.1737 42.1158 43.5394 42.75 42.757 42.75H17.257C16.4746 42.75 15.8403 42.1158 15.8403 41.3333V18.6667C15.8403 17.8843 16.4746 17.25 17.257 17.25ZM41.3404 30H18.6737V39.9167H41.3404V30ZM41.3404 24.3333V20.0833H18.6737V24.3333H41.3404Z" fill="#FFA600"/>
<path d="M17.257 17.25H42.757C43.5394 17.25 44.1737 17.8843 44.1737 18.6667V41.3333C44.1737 42.1158 43.5394 42.75 42.757 42.75H17.257C16.4746 42.75 15.8403 42.1158 15.8403 41.3333V18.6667C15.8403 17.8843 16.4746 17.25 17.257 17.25ZM41.3404 30H18.6737V39.9167H41.3404V30ZM41.3404 24.3333V20.0833H18.6737V24.3333H41.3404Z" fill="black" fill-opacity="0.5"/>
</svg>
