<svg width="220" height="38" viewBox="0 0 220 38" fill="none" xmlns="http://www.w3.org/2000/svg">
<path fill-rule="evenodd" clip-rule="evenodd" d="M9.61643 3.22357C7.24524 3.46599 6.79307 3.99737 6.79749 6.4643L6.75635 15.3052L24.0607 11.2713C24.3473 11.2046 24.6478 11.2251 24.9446 11.3124C26.1969 11.5533 27.1472 12.6428 27.1739 13.9589C27.1964 14.1858 27.1805 14.4084 27.1187 14.6187L22.5202 30.2826C23.7244 30.1824 24.9254 29.8758 26.0066 29.4911C29.033 28.4139 36.8035 24.3505 36.7969 20.9437L36.7694 6.61964C36.7598 1.56331 35.6159 4.53509 27.6863 1.91647C24.279 0.791237 23.6266 0.10241 19.8173 0.750095C16.9932 1.23052 13.2605 2.85099 9.61662 3.22357H9.61643Z" fill="#FCFCFC"/>
<path d="M15.9329 36.8219C16.615 37.8866 17.656 37.587 18.0007 36.6858L25.2869 14.7775L25.289 14.7756C25.399 14.3834 25.29 13.9825 24.9964 13.6876C24.7021 13.3931 24.3014 13.2831 23.9091 13.392L23.907 13.3939L0.816735 18.9145C-0.0852952 19.2567 -0.38751 20.2973 0.675625 20.9823L7.74288 26.0246L16.8093 20.8733L11.3283 29.8415L15.9329 36.8217V36.8219Z" fill="white"/>
<path d="M50.8238 25.7371H55.7789C56.0907 25.7371 56.3333 25.4944 56.3333 25.1826V16.5201H64.0604V25.1826C64.0604 25.4944 64.3028 25.7371 64.6148 25.7371H69.5696C69.8817 25.7371 70.0895 25.4944 70.0895 25.1826V2.03625C70.0895 1.72442 69.8815 1.48181 69.5696 1.48181H64.6148C64.3028 1.48181 64.0604 1.72442 64.0604 2.03625V11.2184H56.3333V2.03625C56.3333 1.72442 56.0907 1.48181 55.7789 1.48181H50.8238C50.5118 1.48181 50.3042 1.72442 50.3042 2.03625V25.1826C50.3042 25.4944 50.512 25.7371 50.8238 25.7371ZM81.5502 26.1529C83.9756 26.1529 86.1588 25.4944 87.5793 24.0391C87.9257 23.7273 87.8911 23.4501 87.7525 23.242L86.1588 21.0245C85.9854 20.7472 85.8122 20.678 85.5349 20.8164C84.1142 21.5787 83.0053 21.6135 82.0352 21.6135C79.9217 21.6135 78.4317 21.0245 77.8081 19.4651H86.9902C88.6882 19.4651 89.1386 18.3216 89.1386 16.4853C89.1386 12.1193 86.124 8.34239 80.9263 8.34239C75.6249 8.34239 72.1252 12.1887 72.1252 17.1781C72.1252 22.4104 75.9715 26.1527 81.55 26.1527L81.5502 26.1529ZM77.7039 15.4806C78.1543 13.7482 79.471 13.0898 80.9611 13.0898C82.3819 13.0898 83.6292 13.6788 83.9758 15.4806H77.7041H77.7039ZM97.8621 26.1529C100.184 26.1529 101.812 25.252 102.956 23.7619L103.025 25.1826C103.025 25.4944 103.268 25.7371 103.58 25.7371H107.842C108.153 25.7371 108.431 25.4944 108.431 25.1826V9.31267C108.431 9.00084 108.188 8.75823 107.876 8.75823H103.58C103.268 8.75823 103.025 9.00084 103.025 9.31267L102.956 10.6988C101.882 9.20886 100.253 8.34239 97.8621 8.34239C93.1843 8.34239 89.9618 12.2581 89.9618 17.2475C89.9618 22.2718 93.1843 26.1527 97.8621 26.1527V26.1529ZM95.6445 17.2477C95.6445 15.0649 97.169 13.6094 99.1788 13.6094C101.223 13.6094 102.644 15.0301 102.644 17.2131C102.644 19.4307 101.223 20.8862 99.1788 20.8862C97.1692 20.8862 95.6445 19.4655 95.6445 17.2479V17.2477ZM111.54 25.7371H116.288C116.6 25.7371 116.842 25.4944 116.842 25.1826V1.5166C116.842 1.20458 116.6 0.962158 116.288 0.962158H111.54C111.229 0.962158 110.986 1.20458 110.986 1.5166V25.1826C110.986 25.4944 111.229 25.7371 111.54 25.7371ZM126.467 25.9451C127.714 25.9451 129.654 25.7024 129.654 24.8016V21.6137C129.654 21.2673 129.343 21.0941 129.065 21.1285C128.58 21.1631 128.303 21.1285 127.991 21.1285C127.16 21.1285 126.536 20.6434 126.536 19.8118V13.2282H129.065C129.377 13.2282 129.62 12.9858 129.62 12.6738V9.31267C129.62 9.00084 129.377 8.75823 129.065 8.75823H126.536V4.80809C126.536 4.49627 126.293 4.25365 125.982 4.25365H121.2C120.888 4.25365 120.645 4.49627 120.645 4.80809V8.75823H118.532C118.22 8.75823 118.012 9.00084 118.012 9.31267V12.6738C118.012 12.9858 118.22 13.2282 118.532 13.2282H120.645V20.4354C120.645 24.6628 123.591 25.9449 126.467 25.9449V25.9451ZM131.69 25.7371H136.403C136.715 25.7371 136.957 25.4944 136.957 25.1826V16.8319C136.957 14.7183 137.893 13.6788 139.556 13.6788C141.254 13.6788 142.12 14.7185 142.12 16.8319V25.1826C142.12 25.4944 142.363 25.7371 142.675 25.7371H147.352C147.665 25.7371 147.942 25.4944 147.942 25.1826V15.3766C147.942 10.976 145.308 8.34258 141.809 8.34258C139.418 8.34258 137.928 9.52068 136.958 11.2532V1.5166C136.958 1.20458 136.715 0.962158 136.403 0.962158H131.691C131.379 0.962158 131.136 1.20458 131.136 1.5166V25.1826C131.136 25.4944 131.379 25.7371 131.691 25.7371H131.69ZM156.596 26.1529C160.13 26.1529 163.179 24.3509 163.249 20.782C163.283 18.218 161.62 16.6587 159.506 15.8272L156.804 14.7529C156.215 14.5449 155.73 14.1639 155.73 13.7134C155.73 13.367 155.868 12.847 156.804 12.847C157.67 12.847 158.571 13.2974 159.68 14.1293C159.992 14.3373 160.269 14.3717 160.477 14.1293L162.452 11.7729C162.625 11.5997 162.694 11.3226 162.486 11.08C160.962 9.27807 158.813 8.34258 156.492 8.34258C153.166 8.34258 150.22 10.2831 150.22 13.7134C150.22 16.035 151.641 17.5942 153.893 18.4606L156.111 19.3269C157.15 19.7773 157.462 20.0198 157.462 20.505C157.462 21.1287 156.977 21.3365 156.215 21.3365C155.141 21.3365 153.997 20.8514 152.438 19.8119C152.161 19.6387 151.849 19.5349 151.537 20.02L150.012 22.1683C149.735 22.5496 149.7 23 149.874 23.2078C151.398 25.0098 153.72 26.1533 156.596 26.1533L156.596 26.1529ZM173.462 26.1529C175.888 26.1529 178.071 25.4944 179.491 24.0391C179.838 23.7273 179.803 23.4501 179.665 23.242L178.071 21.0245C177.897 20.7472 177.724 20.678 177.447 20.8164C176.026 21.5787 174.917 21.6135 173.947 21.6135C171.834 21.6135 170.344 21.0245 169.72 19.4651H178.902C180.6 19.4651 181.051 18.3216 181.051 16.4853C181.051 12.1193 178.036 8.34239 172.838 8.34239C167.537 8.34239 164.037 12.1887 164.037 17.1781C164.037 22.4104 167.883 26.1527 173.462 26.1527L173.462 26.1529ZM169.616 15.4806C170.066 13.7482 171.383 13.0898 172.873 13.0898C174.294 13.0898 175.541 13.6788 175.888 15.4806H169.616H169.616ZM183.294 25.7371H188.007C188.319 25.7371 188.561 25.4944 188.561 25.1826V16.8319C188.561 14.7183 189.497 13.6788 191.16 13.6788C192.858 13.6788 193.724 14.7185 193.724 16.8319V25.1826C193.724 25.4944 193.967 25.7371 194.279 25.7371H198.956C199.268 25.7371 199.546 25.4944 199.546 25.1826V15.3766C199.546 10.976 196.912 8.34258 193.413 8.34258C191.022 8.34258 189.532 9.52068 188.562 11.2532L188.388 9.34747C188.388 8.89703 188.146 8.75842 187.869 8.75842H183.295C182.983 8.75842 182.74 9.00104 182.74 9.31286V25.1828C182.74 25.4946 182.983 25.7372 183.295 25.7372L183.294 25.7371ZM209.101 26.1529C211.422 26.1529 213.051 25.252 214.194 23.7619L214.264 25.1826C214.264 25.4944 214.506 25.7371 214.818 25.7371H219.08C219.392 25.7371 219.669 25.4944 219.669 25.1826V1.5166C219.669 1.20458 219.427 0.962158 219.115 0.962158H214.367C214.056 0.962158 213.813 1.20458 213.813 1.5166V10.1791C212.704 8.96624 211.214 8.34258 209.101 8.34258C204.423 8.34258 201.2 12.2583 201.2 17.2477C201.2 22.272 204.423 26.1529 209.101 26.1529ZM206.883 17.2477C206.883 15.0649 208.408 13.6094 210.417 13.6094C212.462 13.6094 213.882 15.0301 213.882 17.2131C213.882 19.4307 212.462 20.8862 210.417 20.8862C208.408 20.8862 206.883 19.4655 206.883 17.2479V17.2477Z" fill="white"/>
<path d="M50.8238 25.7371H55.7789C56.0907 25.7371 56.3333 25.4944 56.3333 25.1826V16.5201H64.0604V25.1826C64.0604 25.4944 64.3028 25.7371 64.6148 25.7371H69.5696C69.8817 25.7371 70.0895 25.4944 70.0895 25.1826V2.03625C70.0895 1.72442 69.8815 1.48181 69.5696 1.48181H64.6148C64.3028 1.48181 64.0604 1.72442 64.0604 2.03625V11.2184H56.3333V2.03625C56.3333 1.72442 56.0907 1.48181 55.7789 1.48181H50.8238C50.5118 1.48181 50.3042 1.72442 50.3042 2.03625V25.1826C50.3042 25.4944 50.512 25.7371 50.8238 25.7371ZM81.5502 26.1529C83.9756 26.1529 86.1588 25.4944 87.5793 24.0391C87.9257 23.7273 87.8911 23.4501 87.7525 23.242L86.1588 21.0245C85.9854 20.7472 85.8122 20.678 85.5349 20.8164C84.1142 21.5787 83.0053 21.6135 82.0352 21.6135C79.9217 21.6135 78.4317 21.0245 77.8081 19.4651H86.9902C88.6882 19.4651 89.1386 18.3216 89.1386 16.4853C89.1386 12.1193 86.124 8.34239 80.9263 8.34239C75.6249 8.34239 72.1252 12.1887 72.1252 17.1781C72.1252 22.4104 75.9715 26.1527 81.55 26.1527L81.5502 26.1529ZM77.7039 15.4806C78.1543 13.7482 79.471 13.0898 80.9611 13.0898C82.3819 13.0898 83.6292 13.6788 83.9758 15.4806H77.7041H77.7039ZM97.8621 26.1529C100.184 26.1529 101.812 25.252 102.956 23.7619L103.025 25.1826C103.025 25.4944 103.268 25.7371 103.58 25.7371H107.842C108.153 25.7371 108.431 25.4944 108.431 25.1826V9.31267C108.431 9.00084 108.188 8.75823 107.876 8.75823H103.58C103.268 8.75823 103.025 9.00084 103.025 9.31267L102.956 10.6988C101.882 9.20886 100.253 8.34239 97.8621 8.34239C93.1843 8.34239 89.9618 12.2581 89.9618 17.2475C89.9618 22.2718 93.1843 26.1527 97.8621 26.1527V26.1529ZM95.6445 17.2477C95.6445 15.0649 97.169 13.6094 99.1788 13.6094C101.223 13.6094 102.644 15.0301 102.644 17.2131C102.644 19.4307 101.223 20.8862 99.1788 20.8862C97.1692 20.8862 95.6445 19.4655 95.6445 17.2479V17.2477ZM111.54 25.7371H116.288C116.6 25.7371 116.842 25.4944 116.842 25.1826V1.5166C116.842 1.20458 116.6 0.962158 116.288 0.962158H111.54C111.229 0.962158 110.986 1.20458 110.986 1.5166V25.1826C110.986 25.4944 111.229 25.7371 111.54 25.7371ZM126.467 25.9451C127.714 25.9451 129.654 25.7024 129.654 24.8016V21.6137C129.654 21.2673 129.343 21.0941 129.065 21.1285C128.58 21.1631 128.303 21.1285 127.991 21.1285C127.16 21.1285 126.536 20.6434 126.536 19.8118V13.2282H129.065C129.377 13.2282 129.62 12.9858 129.62 12.6738V9.31267C129.62 9.00084 129.377 8.75823 129.065 8.75823H126.536V4.80809C126.536 4.49627 126.293 4.25365 125.982 4.25365H121.2C120.888 4.25365 120.645 4.49627 120.645 4.80809V8.75823H118.532C118.22 8.75823 118.012 9.00084 118.012 9.31267V12.6738C118.012 12.9858 118.22 13.2282 118.532 13.2282H120.645V20.4354C120.645 24.6628 123.591 25.9449 126.467 25.9449V25.9451ZM131.69 25.7371H136.403C136.715 25.7371 136.957 25.4944 136.957 25.1826V16.8319C136.957 14.7183 137.893 13.6788 139.556 13.6788C141.254 13.6788 142.12 14.7185 142.12 16.8319V25.1826C142.12 25.4944 142.363 25.7371 142.675 25.7371H147.352C147.665 25.7371 147.942 25.4944 147.942 25.1826V15.3766C147.942 10.976 145.308 8.34258 141.809 8.34258C139.418 8.34258 137.928 9.52068 136.958 11.2532V1.5166C136.958 1.20458 136.715 0.962158 136.403 0.962158H131.691C131.379 0.962158 131.136 1.20458 131.136 1.5166V25.1826C131.136 25.4944 131.379 25.7371 131.691 25.7371H131.69ZM156.596 26.1529C160.13 26.1529 163.179 24.3509 163.249 20.782C163.283 18.218 161.62 16.6587 159.506 15.8272L156.804 14.7529C156.215 14.5449 155.73 14.1639 155.73 13.7134C155.73 13.367 155.868 12.847 156.804 12.847C157.67 12.847 158.571 13.2974 159.68 14.1293C159.992 14.3373 160.269 14.3717 160.477 14.1293L162.452 11.7729C162.625 11.5997 162.694 11.3226 162.486 11.08C160.962 9.27807 158.813 8.34258 156.492 8.34258C153.166 8.34258 150.22 10.2831 150.22 13.7134C150.22 16.035 151.641 17.5942 153.893 18.4606L156.111 19.3269C157.15 19.7773 157.462 20.0198 157.462 20.505C157.462 21.1287 156.977 21.3365 156.215 21.3365C155.141 21.3365 153.997 20.8514 152.438 19.8119C152.161 19.6387 151.849 19.5349 151.537 20.02L150.012 22.1683C149.735 22.5496 149.7 23 149.874 23.2078C151.398 25.0098 153.72 26.1533 156.596 26.1533L156.596 26.1529ZM173.462 26.1529C175.888 26.1529 178.071 25.4944 179.491 24.0391C179.838 23.7273 179.803 23.4501 179.665 23.242L178.071 21.0245C177.897 20.7472 177.724 20.678 177.447 20.8164C176.026 21.5787 174.917 21.6135 173.947 21.6135C171.834 21.6135 170.344 21.0245 169.72 19.4651H178.902C180.6 19.4651 181.051 18.3216 181.051 16.4853C181.051 12.1193 178.036 8.34239 172.838 8.34239C167.537 8.34239 164.037 12.1887 164.037 17.1781C164.037 22.4104 167.883 26.1527 173.462 26.1527L173.462 26.1529ZM169.616 15.4806C170.066 13.7482 171.383 13.0898 172.873 13.0898C174.294 13.0898 175.541 13.6788 175.888 15.4806H169.616H169.616ZM183.294 25.7371H188.007C188.319 25.7371 188.561 25.4944 188.561 25.1826V16.8319C188.561 14.7183 189.497 13.6788 191.16 13.6788C192.858 13.6788 193.724 14.7185 193.724 16.8319V25.1826C193.724 25.4944 193.967 25.7371 194.279 25.7371H198.956C199.268 25.7371 199.546 25.4944 199.546 25.1826V15.3766C199.546 10.976 196.912 8.34258 193.413 8.34258C191.022 8.34258 189.532 9.52068 188.562 11.2532L188.388 9.34747C188.388 8.89703 188.146 8.75842 187.869 8.75842H183.295C182.983 8.75842 182.74 9.00104 182.74 9.31286V25.1828C182.74 25.4946 182.983 25.7372 183.295 25.7372L183.294 25.7371ZM209.101 26.1529C211.422 26.1529 213.051 25.252 214.194 23.7619L214.264 25.1826C214.264 25.4944 214.506 25.7371 214.818 25.7371H219.08C219.392 25.7371 219.669 25.4944 219.669 25.1826V1.5166C219.669 1.20458 219.427 0.962158 219.115 0.962158H214.367C214.056 0.962158 213.813 1.20458 213.813 1.5166V10.1791C212.704 8.96624 211.214 8.34258 209.101 8.34258C204.423 8.34258 201.2 12.2583 201.2 17.2477C201.2 22.272 204.423 26.1529 209.101 26.1529ZM206.883 17.2477C206.883 15.0649 208.408 13.6094 210.417 13.6094C212.462 13.6094 213.882 15.0301 213.882 17.2131C213.882 19.4307 212.462 20.8862 210.417 20.8862C208.408 20.8862 206.883 19.4655 206.883 17.2479V17.2477Z" fill="white" fill-opacity="0.9"/>
<path d="M52.5658 31.0738C51.996 31.0738 51.5384 31.3414 51.2105 31.7299V29.2266C51.2105 29.149 51.1586 29.0971 51.0811 29.0971H50.4336C50.3561 29.0971 50.3042 29.149 50.3042 29.2266V35.269C50.3042 35.3465 50.3561 35.3984 50.4336 35.3984H51.0207C51.0982 35.3984 51.1414 35.3465 51.1501 35.269L51.1845 34.8374C51.5038 35.2344 51.97 35.5107 52.5656 35.5107C53.7568 35.5107 54.6198 34.5266 54.6198 33.2923C54.6198 32.0579 53.7568 31.0738 52.5656 31.0738H52.5658ZM52.4708 34.6819C51.7284 34.6819 51.1933 34.043 51.1933 33.2835C51.1933 32.5325 51.7284 31.9026 52.4708 31.9026C53.2045 31.9026 53.7481 32.4895 53.7481 33.2835C53.7481 34.0777 53.2045 34.6819 52.4708 34.6819ZM59.7771 31.1687H59.1125C59.0433 31.1687 58.9829 31.2033 58.9569 31.2724L57.8004 34.3455L56.6436 31.2724C56.6176 31.2033 56.5573 31.1687 56.4881 31.1687H55.8321C55.7371 31.1687 55.6939 31.2206 55.7285 31.3156L57.3513 35.4157L56.747 36.8916C56.7126 36.9868 56.7559 37.0383 56.8507 37.0383H57.498C57.5672 37.0383 57.6275 37.0039 57.6535 36.9348L59.8805 31.3154C59.9149 31.2203 59.8718 31.1685 59.7771 31.1685V31.1687ZM72.2884 29.356H71.5892C71.5202 29.356 71.4598 29.382 71.4425 29.4596L70.011 34.1897L68.4486 29.4596C68.4315 29.4164 68.4142 29.3904 68.3883 29.3733C68.3712 29.3645 68.3452 29.356 68.3108 29.356H67.6633C67.6373 29.356 67.6116 29.3647 67.5943 29.3733C67.5599 29.3904 67.5339 29.4164 67.5253 29.4596L65.9556 34.1897L64.5487 29.4596C64.5227 29.382 64.471 29.356 64.4018 29.356H63.7041C63.6092 29.356 63.5659 29.4164 63.6005 29.5027L65.4376 35.2948C65.4549 35.364 65.5326 35.3984 65.6016 35.3984H66.2922C66.3612 35.3984 66.4216 35.364 66.4475 35.2948L67.9913 30.7631L69.5277 35.2948C69.5448 35.364 69.6052 35.3984 69.6744 35.3984H70.3736C70.4426 35.3984 70.503 35.364 70.529 35.2948L72.392 29.5027C72.418 29.4164 72.3832 29.356 72.2884 29.356ZM75.24 31.0738C74.0229 31.0738 73.1424 32.0492 73.1424 33.2923C73.1424 34.5352 74.0313 35.5107 75.3263 35.5107C75.9477 35.5107 76.5002 35.269 76.8974 34.8634C76.9664 34.7942 76.9664 34.7338 76.8974 34.6648L76.6211 34.3972C76.5608 34.3366 76.509 34.3539 76.4398 34.4058C76.1549 34.6215 75.8442 34.7597 75.4126 34.7597C74.6442 34.7597 74.1436 34.3195 74.0315 33.6376H76.9664C77.1994 33.6376 77.2427 33.4823 77.2427 33.1629C77.2427 32.0494 76.4658 31.074 75.24 31.074V31.0738ZM75.2487 31.8506C75.8962 31.8506 76.3795 32.3082 76.4398 33.0074H74.0229C74.1092 32.3082 74.6012 31.8506 75.2487 31.8506ZM78.8906 29.2266V35.269C78.8906 35.3465 78.9425 35.3984 79.0202 35.3984H79.6675C79.7452 35.3984 79.7969 35.3465 79.7969 35.269V29.2266C79.7969 29.149 79.7452 29.0971 79.6675 29.0971H79.0202C78.9425 29.0971 78.8906 29.149 78.8906 29.2266ZM81.6436 29.2266V35.269C81.6436 35.3465 81.6955 35.3984 81.7732 35.3984H82.4205C82.4982 35.3984 82.5499 35.3465 82.5499 35.269V29.2266C82.5499 29.149 82.4982 29.0971 82.4205 29.0971H81.7732C81.6955 29.0971 81.6436 29.149 81.6436 29.2266ZM88.3846 31.1687H87.7977C87.72 31.1687 87.6768 31.2206 87.6681 31.2983L87.6422 31.7645C87.3142 31.3589 86.8482 31.074 86.2524 31.074C85.0614 31.074 84.1982 32.0581 84.1982 33.2925C84.1982 34.5267 85.0614 35.5109 86.2524 35.5109C86.8482 35.5109 87.3142 35.2346 87.6335 34.8376L87.6679 35.2692C87.6766 35.3467 87.7198 35.3986 87.7975 35.3986H88.3844C88.4621 35.3986 88.5138 35.3467 88.5138 35.2692V31.2985C88.5138 31.2208 88.4621 31.1689 88.3844 31.1689L88.3846 31.1687ZM86.3476 34.6819C85.6139 34.6819 85.0701 34.0778 85.0701 33.2835C85.0701 32.4895 85.6139 31.9026 86.3476 31.9026C87.0898 31.9026 87.6251 32.5325 87.6251 33.2835C87.6251 34.043 87.0898 34.6819 86.3476 34.6819ZM92.5791 31.0738C91.9489 31.0738 91.4916 31.419 91.198 31.8679V29.2264C91.198 29.1488 91.1463 29.0969 91.0686 29.0969H90.4213C90.3436 29.0969 90.2917 29.1488 90.2917 29.2264V35.2688C90.2917 35.3463 90.3436 35.3982 90.4213 35.3982H91.0686C91.1463 35.3982 91.198 35.3463 91.198 35.2688V32.8086C91.198 32.6273 91.5692 31.9024 92.3029 31.9024C92.8037 31.9024 93.1747 32.213 93.1747 32.938V35.2688C93.1747 35.3463 93.2266 35.3982 93.3043 35.3982H93.9516C94.0292 35.3982 94.0812 35.3463 94.0812 35.2688V32.8086C94.0812 31.6778 93.451 31.0736 92.5791 31.0736V31.0738ZM97.8354 31.0738C96.6183 31.0738 95.7378 32.0492 95.7378 33.2923C95.7378 34.5352 96.6267 35.5107 97.9217 35.5107C98.543 35.5107 99.0956 35.269 99.4928 34.8634C99.5618 34.7942 99.5618 34.7338 99.4928 34.6648L99.2165 34.3972C99.1561 34.3366 99.1044 34.3539 99.0352 34.4058C98.7503 34.6215 98.4396 34.7597 98.008 34.7597C97.2396 34.7597 96.739 34.3195 96.6269 33.6376H99.5618C99.7948 33.6376 99.838 33.4823 99.838 33.1629C99.838 32.0494 99.0612 31.074 97.8354 31.074V31.0738ZM97.844 31.8506C98.4915 31.8506 98.9748 32.3082 99.0352 33.0074H96.6183C96.7046 32.3082 97.1965 31.8506 97.844 31.8506ZM105.491 31.1685H104.905C104.827 31.1685 104.784 31.2205 104.775 31.2981L104.749 31.7643C104.421 31.3587 103.955 31.0738 103.359 31.0738C102.168 31.0738 101.305 32.0579 101.305 33.2923C101.305 34.5266 102.168 35.5107 103.359 35.5107C103.955 35.5107 104.421 35.2344 104.74 34.8374L104.775 35.269C104.783 35.3465 104.827 35.3984 104.904 35.3984H105.491C105.569 35.3984 105.621 35.3465 105.621 35.269V31.2983C105.621 31.2206 105.569 31.1687 105.491 31.1687L105.491 31.1685ZM103.454 34.6817C102.721 34.6817 102.177 34.0777 102.177 33.2833C102.177 32.4893 102.721 31.9024 103.454 31.9024C104.197 31.9024 104.732 32.5324 104.732 33.2833C104.732 34.0429 104.197 34.6817 103.454 34.6817ZM107.398 29.2264V35.2688C107.398 35.3463 107.45 35.3982 107.528 35.3982H108.175C108.253 35.3982 108.305 35.3463 108.305 35.2688V29.2264C108.305 29.1488 108.253 29.0969 108.175 29.0969H107.528C107.45 29.0969 107.398 29.1488 107.398 29.2264ZM112.154 31.1685H111.55V30.0033C111.55 29.9258 111.498 29.8739 111.42 29.8739H110.773C110.695 29.8739 110.644 29.9258 110.644 30.0033V31.1685H110.039C109.962 31.1685 109.91 31.2205 109.91 31.2981V31.7901C109.91 31.8678 109.962 31.9195 110.039 31.9195H110.644V35.2688C110.644 35.3463 110.695 35.3982 110.773 35.3982H111.42C111.498 35.3982 111.55 35.3463 111.55 35.2688V31.9195H112.154C112.232 31.9195 112.283 31.8678 112.283 31.7901V31.2981C112.283 31.2205 112.232 31.1685 112.154 31.1685ZM116.176 31.0736C115.546 31.0736 115.088 31.4189 114.795 31.8678V29.2263C114.795 29.1486 114.743 29.0967 114.665 29.0967H114.018C113.94 29.0967 113.889 29.1486 113.889 29.2263V35.2686C113.889 35.3461 113.94 35.398 114.018 35.398H114.665C114.743 35.398 114.795 35.3461 114.795 35.2686V32.8084C114.795 32.6271 115.166 31.9022 115.9 31.9022C116.4 31.9022 116.771 32.2128 116.771 32.9378V35.2686C116.771 35.3461 116.823 35.398 116.901 35.398H117.548C117.626 35.398 117.678 35.3461 117.678 35.2686V32.8084C117.678 31.6776 117.048 31.0734 116.176 31.0734V31.0736Z" fill="white"/>
<path d="M52.5658 31.0738C51.996 31.0738 51.5384 31.3414 51.2105 31.7299V29.2266C51.2105 29.149 51.1586 29.0971 51.0811 29.0971H50.4336C50.3561 29.0971 50.3042 29.149 50.3042 29.2266V35.269C50.3042 35.3465 50.3561 35.3984 50.4336 35.3984H51.0207C51.0982 35.3984 51.1414 35.3465 51.1501 35.269L51.1845 34.8374C51.5038 35.2344 51.97 35.5107 52.5656 35.5107C53.7568 35.5107 54.6198 34.5266 54.6198 33.2923C54.6198 32.0579 53.7568 31.0738 52.5656 31.0738H52.5658ZM52.4708 34.6819C51.7284 34.6819 51.1933 34.043 51.1933 33.2835C51.1933 32.5325 51.7284 31.9026 52.4708 31.9026C53.2045 31.9026 53.7481 32.4895 53.7481 33.2835C53.7481 34.0777 53.2045 34.6819 52.4708 34.6819ZM59.7771 31.1687H59.1125C59.0433 31.1687 58.9829 31.2033 58.9569 31.2724L57.8004 34.3455L56.6436 31.2724C56.6176 31.2033 56.5573 31.1687 56.4881 31.1687H55.8321C55.7371 31.1687 55.6939 31.2206 55.7285 31.3156L57.3513 35.4157L56.747 36.8916C56.7126 36.9868 56.7559 37.0383 56.8507 37.0383H57.498C57.5672 37.0383 57.6275 37.0039 57.6535 36.9348L59.8805 31.3154C59.9149 31.2203 59.8718 31.1685 59.7771 31.1685V31.1687ZM72.2884 29.356H71.5892C71.5202 29.356 71.4598 29.382 71.4425 29.4596L70.011 34.1897L68.4486 29.4596C68.4315 29.4164 68.4142 29.3904 68.3883 29.3733C68.3712 29.3645 68.3452 29.356 68.3108 29.356H67.6633C67.6373 29.356 67.6116 29.3647 67.5943 29.3733C67.5599 29.3904 67.5339 29.4164 67.5253 29.4596L65.9556 34.1897L64.5487 29.4596C64.5227 29.382 64.471 29.356 64.4018 29.356H63.7041C63.6092 29.356 63.5659 29.4164 63.6005 29.5027L65.4376 35.2948C65.4549 35.364 65.5326 35.3984 65.6016 35.3984H66.2922C66.3612 35.3984 66.4216 35.364 66.4475 35.2948L67.9913 30.7631L69.5277 35.2948C69.5448 35.364 69.6052 35.3984 69.6744 35.3984H70.3736C70.4426 35.3984 70.503 35.364 70.529 35.2948L72.392 29.5027C72.418 29.4164 72.3832 29.356 72.2884 29.356ZM75.24 31.0738C74.0229 31.0738 73.1424 32.0492 73.1424 33.2923C73.1424 34.5352 74.0313 35.5107 75.3263 35.5107C75.9477 35.5107 76.5002 35.269 76.8974 34.8634C76.9664 34.7942 76.9664 34.7338 76.8974 34.6648L76.6211 34.3972C76.5608 34.3366 76.509 34.3539 76.4398 34.4058C76.1549 34.6215 75.8442 34.7597 75.4126 34.7597C74.6442 34.7597 74.1436 34.3195 74.0315 33.6376H76.9664C77.1994 33.6376 77.2427 33.4823 77.2427 33.1629C77.2427 32.0494 76.4658 31.074 75.24 31.074V31.0738ZM75.2487 31.8506C75.8962 31.8506 76.3795 32.3082 76.4398 33.0074H74.0229C74.1092 32.3082 74.6012 31.8506 75.2487 31.8506ZM78.8906 29.2266V35.269C78.8906 35.3465 78.9425 35.3984 79.0202 35.3984H79.6675C79.7452 35.3984 79.7969 35.3465 79.7969 35.269V29.2266C79.7969 29.149 79.7452 29.0971 79.6675 29.0971H79.0202C78.9425 29.0971 78.8906 29.149 78.8906 29.2266ZM81.6436 29.2266V35.269C81.6436 35.3465 81.6955 35.3984 81.7732 35.3984H82.4205C82.4982 35.3984 82.5499 35.3465 82.5499 35.269V29.2266C82.5499 29.149 82.4982 29.0971 82.4205 29.0971H81.7732C81.6955 29.0971 81.6436 29.149 81.6436 29.2266ZM88.3846 31.1687H87.7977C87.72 31.1687 87.6768 31.2206 87.6681 31.2983L87.6422 31.7645C87.3142 31.3589 86.8482 31.074 86.2524 31.074C85.0614 31.074 84.1982 32.0581 84.1982 33.2925C84.1982 34.5267 85.0614 35.5109 86.2524 35.5109C86.8482 35.5109 87.3142 35.2346 87.6335 34.8376L87.6679 35.2692C87.6766 35.3467 87.7198 35.3986 87.7975 35.3986H88.3844C88.4621 35.3986 88.5138 35.3467 88.5138 35.2692V31.2985C88.5138 31.2208 88.4621 31.1689 88.3844 31.1689L88.3846 31.1687ZM86.3476 34.6819C85.6139 34.6819 85.0701 34.0778 85.0701 33.2835C85.0701 32.4895 85.6139 31.9026 86.3476 31.9026C87.0898 31.9026 87.6251 32.5325 87.6251 33.2835C87.6251 34.043 87.0898 34.6819 86.3476 34.6819ZM92.5791 31.0738C91.9489 31.0738 91.4916 31.419 91.198 31.8679V29.2264C91.198 29.1488 91.1463 29.0969 91.0686 29.0969H90.4213C90.3436 29.0969 90.2917 29.1488 90.2917 29.2264V35.2688C90.2917 35.3463 90.3436 35.3982 90.4213 35.3982H91.0686C91.1463 35.3982 91.198 35.3463 91.198 35.2688V32.8086C91.198 32.6273 91.5692 31.9024 92.3029 31.9024C92.8037 31.9024 93.1747 32.213 93.1747 32.938V35.2688C93.1747 35.3463 93.2266 35.3982 93.3043 35.3982H93.9516C94.0292 35.3982 94.0812 35.3463 94.0812 35.2688V32.8086C94.0812 31.6778 93.451 31.0736 92.5791 31.0736V31.0738ZM97.8354 31.0738C96.6183 31.0738 95.7378 32.0492 95.7378 33.2923C95.7378 34.5352 96.6267 35.5107 97.9217 35.5107C98.543 35.5107 99.0956 35.269 99.4928 34.8634C99.5618 34.7942 99.5618 34.7338 99.4928 34.6648L99.2165 34.3972C99.1561 34.3366 99.1044 34.3539 99.0352 34.4058C98.7503 34.6215 98.4396 34.7597 98.008 34.7597C97.2396 34.7597 96.739 34.3195 96.6269 33.6376H99.5618C99.7948 33.6376 99.838 33.4823 99.838 33.1629C99.838 32.0494 99.0612 31.074 97.8354 31.074V31.0738ZM97.844 31.8506C98.4915 31.8506 98.9748 32.3082 99.0352 33.0074H96.6183C96.7046 32.3082 97.1965 31.8506 97.844 31.8506ZM105.491 31.1685H104.905C104.827 31.1685 104.784 31.2205 104.775 31.2981L104.749 31.7643C104.421 31.3587 103.955 31.0738 103.359 31.0738C102.168 31.0738 101.305 32.0579 101.305 33.2923C101.305 34.5266 102.168 35.5107 103.359 35.5107C103.955 35.5107 104.421 35.2344 104.74 34.8374L104.775 35.269C104.783 35.3465 104.827 35.3984 104.904 35.3984H105.491C105.569 35.3984 105.621 35.3465 105.621 35.269V31.2983C105.621 31.2206 105.569 31.1687 105.491 31.1687L105.491 31.1685ZM103.454 34.6817C102.721 34.6817 102.177 34.0777 102.177 33.2833C102.177 32.4893 102.721 31.9024 103.454 31.9024C104.197 31.9024 104.732 32.5324 104.732 33.2833C104.732 34.0429 104.197 34.6817 103.454 34.6817ZM107.398 29.2264V35.2688C107.398 35.3463 107.45 35.3982 107.528 35.3982H108.175C108.253 35.3982 108.305 35.3463 108.305 35.2688V29.2264C108.305 29.1488 108.253 29.0969 108.175 29.0969H107.528C107.45 29.0969 107.398 29.1488 107.398 29.2264ZM112.154 31.1685H111.55V30.0033C111.55 29.9258 111.498 29.8739 111.42 29.8739H110.773C110.695 29.8739 110.644 29.9258 110.644 30.0033V31.1685H110.039C109.962 31.1685 109.91 31.2205 109.91 31.2981V31.7901C109.91 31.8678 109.962 31.9195 110.039 31.9195H110.644V35.2688C110.644 35.3463 110.695 35.3982 110.773 35.3982H111.42C111.498 35.3982 111.55 35.3463 111.55 35.2688V31.9195H112.154C112.232 31.9195 112.283 31.8678 112.283 31.7901V31.2981C112.283 31.2205 112.232 31.1685 112.154 31.1685ZM116.176 31.0736C115.546 31.0736 115.088 31.4189 114.795 31.8678V29.2263C114.795 29.1486 114.743 29.0967 114.665 29.0967H114.018C113.94 29.0967 113.889 29.1486 113.889 29.2263V35.2686C113.889 35.3461 113.94 35.398 114.018 35.398H114.665C114.743 35.398 114.795 35.3461 114.795 35.2686V32.8084C114.795 32.6271 115.166 31.9022 115.9 31.9022C116.4 31.9022 116.771 32.2128 116.771 32.9378V35.2686C116.771 35.3461 116.823 35.398 116.901 35.398H117.548C117.626 35.398 117.678 35.3461 117.678 35.2686V32.8084C117.678 31.6776 117.048 31.0734 116.176 31.0734V31.0736Z" fill="white" fill-opacity="0.9"/>
</svg>
