<svg width="181" height="26" viewBox="0 0 181 26" fill="none" xmlns="http://www.w3.org/2000/svg">
<g clip-path="url(#clip0_1049_2592)">
<path fill-rule="evenodd" clip-rule="evenodd" d="M136.767 11.19C136.095 7.58632 132.866 5.75939 128.618 6.5464C124.178 7.36901 123.209 11.123 123.214 16.0524C123.22 21.1764 123.898 24.7976 128.68 25.4611C133.565 26.139 136.963 23.9565 136.798 19.0465L132.694 19.0179C132.259 20.7614 132.273 22.2233 130.559 22.4103C128.705 22.6125 128.162 20.9916 128.073 19.4659L128.001 16.9101L136.719 16.8859L137.094 16.8849C137.377 14.9243 137.125 13.1083 136.767 11.1899L136.767 11.19ZM128.008 13.9478L132.536 13.9482C133.011 7.47324 127.159 8.77334 128.008 13.9478Z" fill="white"/>
<path fill-rule="evenodd" clip-rule="evenodd" d="M136.767 11.19C136.095 7.58632 132.866 5.75939 128.618 6.5464C124.178 7.36901 123.209 11.123 123.214 16.0524C123.22 21.1764 123.898 24.7976 128.68 25.4611C133.565 26.139 136.963 23.9565 136.798 19.0465L132.694 19.0179C132.259 20.7614 132.273 22.2233 130.559 22.4103C128.705 22.6125 128.162 20.9916 128.073 19.4659L128.001 16.9101L136.719 16.8859L137.094 16.8849C137.377 14.9243 137.125 13.1083 136.767 11.1899L136.767 11.19ZM128.008 13.9478L132.536 13.9482C133.011 7.47324 127.159 8.77334 128.008 13.9478Z" fill="black" fill-opacity="0.75"/>
<path fill-rule="evenodd" clip-rule="evenodd" d="M66.7083 7.23757C66.3538 6.60668 66.9243 6.96637 65.8756 6.80271C65.7858 6.78872 64.8837 6.80751 64.7228 6.80925C63.8362 6.81877 63.1111 6.79211 62.2281 6.9037L62.1377 25.1759L66.8868 25.238L67.0308 13.5054C67.5159 10.9206 69.1508 11.0196 71.8334 10.9047L71.8287 6.5056C68.4549 6.01594 68.1363 7.80545 66.7572 9.08395L66.7084 7.23757H66.7083Z" fill="white"/>
<path fill-rule="evenodd" clip-rule="evenodd" d="M66.7083 7.23757C66.3538 6.60668 66.9243 6.96637 65.8756 6.80271C65.7858 6.78872 64.8837 6.80751 64.7228 6.80925C63.8362 6.81877 63.1111 6.79211 62.2281 6.9037L62.1377 25.1759L66.8868 25.238L67.0308 13.5054C67.5159 10.9206 69.1508 11.0196 71.8334 10.9047L71.8287 6.5056C68.4549 6.01594 68.1363 7.80545 66.7572 9.08395L66.7084 7.23757H66.7083Z" fill="black" fill-opacity="0.75"/>
<path fill-rule="evenodd" clip-rule="evenodd" d="M80.0091 7.23757C79.6546 6.60668 80.225 6.96637 79.1763 6.80271C79.0866 6.78872 78.1845 6.80751 78.0236 6.80925C77.137 6.81877 76.4119 6.79211 75.5289 6.9037L75.4385 25.1759L80.1876 25.238L80.3316 13.5054C80.8167 10.9206 82.4516 11.0196 85.1342 10.9047L85.1295 6.5056C81.7557 6.01594 81.4371 7.80545 80.058 9.08395L80.0092 7.23757H80.0091Z" fill="white"/>
<path fill-rule="evenodd" clip-rule="evenodd" d="M80.0091 7.23757C79.6546 6.60668 80.225 6.96637 79.1763 6.80271C79.0866 6.78872 78.1845 6.80751 78.0236 6.80925C77.137 6.81877 76.4119 6.79211 75.5289 6.9037L75.4385 25.1759L80.1876 25.238L80.3316 13.5054C80.8167 10.9206 82.4516 11.0196 85.1342 10.9047L85.1295 6.5056C81.7557 6.01594 81.4371 7.80545 80.058 9.08395L80.0092 7.23757H80.0091Z" fill="black" fill-opacity="0.75"/>
<path fill-rule="evenodd" clip-rule="evenodd" d="M30.0354 7.2767C29.6988 6.59167 30.3158 6.98596 29.2109 6.78985C29.1669 6.78207 28.1816 6.79349 28.0582 6.7949C27.1652 6.80517 26.4443 6.77901 25.5548 6.89416L25.4604 25.1822L30.2079 25.2409L30.4152 12.2009C30.6371 10.7833 31.5653 9.6177 33.359 10.1249C34.987 10.5854 34.6651 12.6937 34.6575 14.3225C34.6409 17.9176 34.6874 21.5195 34.6439 25.1133L39.3526 25.1725C39.3342 21.0984 39.7863 13.663 39.2413 10.0016C38.9228 7.8628 37.4871 6.57346 35.2232 6.40897C31.9777 6.17321 31.5991 7.57637 30.0709 8.7989L30.0354 7.27661V7.2767Z" fill="white"/>
<path fill-rule="evenodd" clip-rule="evenodd" d="M30.0354 7.2767C29.6988 6.59167 30.3158 6.98596 29.2109 6.78985C29.1669 6.78207 28.1816 6.79349 28.0582 6.7949C27.1652 6.80517 26.4443 6.77901 25.5548 6.89416L25.4604 25.1822L30.2079 25.2409L30.4152 12.2009C30.6371 10.7833 31.5653 9.6177 33.359 10.1249C34.987 10.5854 34.6651 12.6937 34.6575 14.3225C34.6409 17.9176 34.6874 21.5195 34.6439 25.1133L39.3526 25.1725C39.3342 21.0984 39.7863 13.663 39.2413 10.0016C38.9228 7.8628 37.4871 6.57346 35.2232 6.40897C31.9777 6.17321 31.5991 7.57637 30.0709 8.7989L30.0354 7.27661V7.2767Z" fill="black" fill-opacity="0.75"/>
<path fill-rule="evenodd" clip-rule="evenodd" d="M48.3319 15.1906C48.3319 17.9001 47.9075 22.6401 50.9571 22.4249C53.4296 22.2503 53.2777 17.9792 53.2777 15.7681C53.2777 13.5183 53.2783 10.086 51.2048 9.69928C48.3369 9.16426 48.3319 12.7568 48.3319 15.1907V15.1906ZM48.4352 6.73791C43.7531 8.19579 43.2567 13.0758 43.7468 18.6672C43.9771 21.294 44.723 23.5052 46.2909 24.5274C48.0867 25.6982 51.0203 25.8367 53.2419 25.281C60.0221 23.5851 58.6997 9.89068 55.3757 7.56929C53.6785 6.38401 50.6941 6.0345 48.435 6.73799L48.4352 6.73791Z" fill="white"/>
<path fill-rule="evenodd" clip-rule="evenodd" d="M48.3319 15.1906C48.3319 17.9001 47.9075 22.6401 50.9571 22.4249C53.4296 22.2503 53.2777 17.9792 53.2777 15.7681C53.2777 13.5183 53.2783 10.086 51.2048 9.69928C48.3369 9.16426 48.3319 12.7568 48.3319 15.1907V15.1906ZM48.4352 6.73791C43.7531 8.19579 43.2567 13.0758 43.7468 18.6672C43.9771 21.294 44.723 23.5052 46.2909 24.5274C48.0867 25.6982 51.0203 25.8367 53.2419 25.281C60.0221 23.5851 58.6997 9.89068 55.3757 7.56929C53.6785 6.38401 50.6941 6.0345 48.435 6.73799L48.4352 6.73791Z" fill="black" fill-opacity="0.75"/>
<path fill-rule="evenodd" clip-rule="evenodd" d="M162.894 11.2713C164.541 11.8255 174.327 15.8925 175.169 16.6342L162.995 21.9262L162.902 25.3599L180.183 17.7833L180.212 15.3865L163.03 7.75049L162.894 11.2714L162.894 11.2713Z" fill="white"/>
<path fill-rule="evenodd" clip-rule="evenodd" d="M162.894 11.2713C164.541 11.8255 174.327 15.8925 175.169 16.6342L162.995 21.9262L162.902 25.3599L180.183 17.7833L180.212 15.3865L163.03 7.75049L162.894 11.2714L162.894 11.2713Z" fill="black" fill-opacity="0.75"/>
<path fill-rule="evenodd" clip-rule="evenodd" d="M92.2168 19.2542L88.1775 19.1611C88.1556 23.4483 89.5235 25.2155 93.6537 25.52C97.5402 25.8066 100.795 24.7265 101.5 21.3854C103.193 13.3552 93.8362 15.1865 92.9091 12.1554C92.1695 9.73748 96.7918 7.70972 96.9943 12.3554L101.246 12.3659C101.175 7.7464 98.9453 6.09911 94.2064 6.4107C86.8989 6.89109 86.6919 14.523 91.3225 16.6756C92.5284 17.2362 95.1627 17.9358 96.0694 18.5272C97.4975 19.4587 97.4617 21.8836 95.57 22.3513C92.7328 23.0528 92.8658 21.1598 92.2168 19.2542H92.2168Z" fill="white"/>
<path fill-rule="evenodd" clip-rule="evenodd" d="M92.2168 19.2542L88.1775 19.1611C88.1556 23.4483 89.5235 25.2155 93.6537 25.52C97.5402 25.8066 100.795 24.7265 101.5 21.3854C103.193 13.3552 93.8362 15.1865 92.9091 12.1554C92.1695 9.73748 96.7918 7.70972 96.9943 12.3554L101.246 12.3659C101.175 7.7464 98.9453 6.09911 94.2064 6.4107C86.8989 6.89109 86.6919 14.523 91.3225 16.6756C92.5284 17.2362 95.1627 17.9358 96.0694 18.5272C97.4975 19.4587 97.4617 21.8836 95.57 22.3513C92.7328 23.0528 92.8658 21.1598 92.2168 19.2542H92.2168Z" fill="black" fill-opacity="0.75"/>
<path fill-rule="evenodd" clip-rule="evenodd" d="M145.859 8.81957C145.858 8.52677 145.887 7.93455 145.799 7.68289C145.423 6.61739 145.914 6.91483 141.381 6.91019L141.385 25.1714L146.09 25.159C146.064 23.1707 145.681 12.4344 146.524 11.0331C147.266 9.79955 148.884 9.76727 149.83 10.5273C151.52 12.4379 150.124 21.826 150.556 25.105L155.072 25.167C155.364 23.3968 155.336 11.9449 155.066 10.175C154.709 7.82759 153.652 6.66342 151.231 6.42451C148.105 6.11606 147.303 7.4785 145.859 8.81966L145.859 8.81957Z" fill="white"/>
<path fill-rule="evenodd" clip-rule="evenodd" d="M145.859 8.81957C145.858 8.52677 145.887 7.93455 145.799 7.68289C145.423 6.61739 145.914 6.91483 141.381 6.91019L141.385 25.1714L146.09 25.159C146.064 23.1707 145.681 12.4344 146.524 11.0331C147.266 9.79955 148.884 9.76727 149.83 10.5273C151.52 12.4379 150.124 21.826 150.556 25.105L155.072 25.167C155.364 23.3968 155.336 11.9449 155.066 10.175C154.709 7.82759 153.652 6.66342 151.231 6.42451C148.105 6.11606 147.303 7.4785 145.859 8.81966L145.859 8.81957Z" fill="black" fill-opacity="0.75"/>
<path fill-rule="evenodd" clip-rule="evenodd" d="M105.838 25.1704L110.548 25.1604C110.503 21.2967 109.925 19.8993 112.238 17.8512L116.053 25.1807L121.019 25.1687C120.796 24.0299 116.951 17.318 116.031 15.7198C114.696 13.4017 115.741 13.3999 117.247 11.2578C118.088 10.0618 119.731 8.18007 120.244 6.91523L115.252 6.91979C113.955 8.40184 111.812 12.3139 110.552 13.5315L110.537 0.907378L105.83 0.898438L105.838 25.1705L105.838 25.1704Z" fill="white"/>
<path fill-rule="evenodd" clip-rule="evenodd" d="M105.838 25.1704L110.548 25.1604C110.503 21.2967 109.925 19.8993 112.238 17.8512L116.053 25.1807L121.019 25.1687C120.796 24.0299 116.951 17.318 116.031 15.7198C114.696 13.4017 115.741 13.3999 117.247 11.2578C118.088 10.0618 119.731 8.18007 120.244 6.91523L115.252 6.91979C113.955 8.40184 111.812 12.3139 110.552 13.5315L110.537 0.907378L105.83 0.898438L105.838 25.1705L105.838 25.1704Z" fill="black" fill-opacity="0.75"/>
<path fill-rule="evenodd" clip-rule="evenodd" d="M17.5957 11.2713C15.9485 11.8255 6.16295 15.8925 5.32095 16.6342L17.4945 21.9262L17.5875 25.3599L0.306497 17.7833L0.277344 15.3865L17.4602 7.75049L17.5956 11.2714L17.5957 11.2713Z" fill="white"/>
<path fill-rule="evenodd" clip-rule="evenodd" d="M17.5957 11.2713C15.9485 11.8255 6.16295 15.8925 5.32095 16.6342L17.4945 21.9262L17.5875 25.3599L0.306497 17.7833L0.277344 15.3865L17.4602 7.75049L17.5956 11.2714L17.5957 11.2713Z" fill="black" fill-opacity="0.75"/>
</g>
<defs>
<clipPath id="clip0_1049_2592">
<rect width="179.935" height="24.697" fill="white" transform="translate(0.277344 0.898438)"/>
</clipPath>
</defs>
</svg>
