<svg width="200" height="36" viewBox="0 0 200 36" fill="none" xmlns="http://www.w3.org/2000/svg">
<path fill-rule="evenodd" clip-rule="evenodd" d="M27.5968 3.88749C27.5212 3.0703 27.037 2.38182 26.2689 2.22043C22.296 1.35137 18.2433 0.899469 14.1766 0.87207C10.1119 0.899791 6.06125 1.35169 2.09042 2.22043C1.32226 2.38182 0.840123 3.06826 0.766577 3.88749C0.458089 7.28902 -0.267163 16.0881 0.102614 19.6183C0.974959 27.974 7.04869 33.2122 14.1766 35.6229C15.0963 35.3127 15.9991 34.9547 16.8815 34.5503L19.2002 33.3245C23.993 30.4419 27.6009 25.9208 28.2546 19.6183C28.6326 16.0819 27.8971 7.29719 27.5968 3.88749Z" fill="white"/>
<path fill-rule="evenodd" clip-rule="evenodd" d="M27.5968 3.88749C27.5212 3.0703 27.037 2.38182 26.2689 2.22043C22.296 1.35137 18.2433 0.899469 14.1766 0.87207C10.1119 0.899791 6.06125 1.35169 2.09042 2.22043C1.32226 2.38182 0.840123 3.06826 0.766577 3.88749C0.458089 7.28902 -0.267163 16.0881 0.102614 19.6183C0.974959 27.974 7.04869 33.2122 14.1766 35.6229C15.0963 35.3127 15.9991 34.9547 16.8815 34.5503L19.2002 33.3245C23.993 30.4419 27.6009 25.9208 28.2546 19.6183C28.6326 16.0819 27.8971 7.29719 27.5968 3.88749Z" fill="black" fill-opacity="0.75"/>
<path fill-rule="evenodd" clip-rule="evenodd" d="M26.5999 4.95591C26.5325 4.19593 26.081 3.55852 25.3741 3.40734C21.6945 2.60349 17.941 2.18583 14.1746 2.16113C10.4127 2.18837 6.6639 2.60879 2.98938 3.41552C2.27843 3.56669 1.83307 4.2041 1.76361 4.96408C1.47555 8.1082 0.805457 16.2596 1.15072 19.5202C1.9679 27.2528 7.57584 32.1028 14.1787 34.3358C15.0323 34.0503 15.8697 33.7189 16.6875 33.3429L5.43481 10.7988L4.33161 9.953C4.24631 9.88818 4.17681 9.80487 4.12833 9.70934C4.07986 9.6138 4.05367 9.50851 4.05173 9.40139V5.9018C4.05064 5.85576 4.05867 5.80994 4.07536 5.76701C4.09205 5.72408 4.11706 5.68487 4.14896 5.65165C4.18086 5.61842 4.21902 5.59183 4.26123 5.5734C4.30345 5.55498 4.34889 5.54508 4.39494 5.54429C4.46862 5.54558 4.54005 5.56986 4.59924 5.61375L7.32047 7.71595C7.40597 7.78392 7.47462 7.87073 7.52104 7.9696C7.56746 8.06847 7.59041 8.17673 7.58809 8.28594V9.67516C8.92427 8.93226 10.447 8.59237 11.9723 8.69658C14.4524 8.82528 16.1563 10.525 19.1227 10.6885C21.5211 10.8131 23.1636 9.96321 24.3894 9.25839C24.5202 11.046 24.6448 13.0256 24.7061 14.8071L24.7469 16.5742C23.3965 17.704 21.184 18.6969 19.9235 18.6969C17.8417 18.6969 16.4239 17.3404 14.4525 17.3404C13.5236 17.34 12.6171 17.6253 11.8558 18.1575L18.8285 32.207C23.2678 29.5348 26.6101 25.3488 27.2046 19.5141C27.5601 16.2515 26.8818 8.10003 26.5999 4.95591ZM12.8528 30.9955L12.2031 30.6932C7.58605 28.3887 4.25602 24.5663 3.69625 19.2301C3.54507 17.7653 3.62066 15.087 3.7841 12.3596L12.8528 30.9955ZM19.1206 8.37787C16.1542 8.21239 14.524 6.64544 12.0458 6.51469C11.1614 6.46635 10.2754 6.57494 9.4288 6.83543L7.18154 5.3359L7.24283 5.3216C9.53551 4.98496 11.8492 4.81156 14.1664 4.80269C17.5014 4.8241 20.8262 5.17238 24.0932 5.84256L24.2096 7.0479C23.0043 7.71595 21.4169 8.49023 19.1206 8.36766V8.37787ZM19.6416 28.4602L15.8396 20.8277C15.6456 20.4491 15.383 20.1096 15.0653 19.8266C16.2441 20.2107 17.6558 21.1423 19.9215 21.1423C22.1013 21.1423 23.9502 19.8205 24.6836 19.1218C24.2771 23.1015 22.4016 26.1823 19.6416 28.45V28.4602Z" fill="#F9F8F6"/>
<path d="M105.92 19.3201H103.313V4.06934H105.92V19.3201Z" fill="white"/>
<path d="M105.92 19.3201H103.313V4.06934H105.92V19.3201Z" fill="black" fill-opacity="0.75"/>
<path d="M109.673 19.3201V4.06934H114.513C115.985 4.06934 117.153 4.39212 118.016 5.0377C118.422 5.31908 118.752 5.69615 118.977 6.13552C119.202 6.57489 119.316 7.06301 119.307 7.55667C119.324 8.36705 119.065 9.15906 118.574 9.80393C118.057 10.4602 117.347 10.9364 116.543 11.1645V11.2074C117.494 11.2816 118.387 11.6948 119.058 12.3719C119.685 13.027 119.999 13.8796 120 14.9297C120.016 15.544 119.884 16.1532 119.616 16.706C119.347 17.2588 118.95 17.7391 118.458 18.1065C117.431 18.9155 116.137 19.3201 114.576 19.3201H109.673ZM112.194 6.10004V10.4393H113.828C114.708 10.4393 115.398 10.235 115.898 9.8264C116.398 9.41781 116.648 8.8308 116.648 8.06537C116.648 6.76196 115.775 6.10957 114.03 6.10821L112.194 6.10004ZM112.194 12.47V17.3077H114.353C115.296 17.3077 116.024 17.0898 116.537 16.654C116.794 16.4313 116.997 16.1532 117.131 15.8408C117.264 15.5283 117.326 15.1896 117.309 14.85C117.309 13.2688 116.214 12.4782 114.022 12.4782L112.194 12.47Z" fill="white"/>
<path d="M109.673 19.3201V4.06934H114.513C115.985 4.06934 117.153 4.39212 118.016 5.0377C118.422 5.31908 118.752 5.69615 118.977 6.13552C119.202 6.57489 119.316 7.06301 119.307 7.55667C119.324 8.36705 119.065 9.15906 118.574 9.80393C118.057 10.4602 117.347 10.9364 116.543 11.1645V11.2074C117.494 11.2816 118.387 11.6948 119.058 12.3719C119.685 13.027 119.999 13.8796 120 14.9297C120.016 15.544 119.884 16.1532 119.616 16.706C119.347 17.2588 118.95 17.7391 118.458 18.1065C117.431 18.9155 116.137 19.3201 114.576 19.3201H109.673ZM112.194 6.10004V10.4393H113.828C114.708 10.4393 115.398 10.235 115.898 9.8264C116.398 9.41781 116.648 8.8308 116.648 8.06537C116.648 6.76196 115.775 6.10957 114.03 6.10821L112.194 6.10004ZM112.194 12.47V17.3077H114.353C115.296 17.3077 116.024 17.0898 116.537 16.654C116.794 16.4313 116.997 16.1532 117.131 15.8408C117.264 15.5283 117.326 15.1896 117.309 14.85C117.309 13.2688 116.214 12.4782 114.022 12.4782L112.194 12.47Z" fill="black" fill-opacity="0.75"/>
<path d="M131.837 6.21649H127.447V19.3201H124.924V6.21649H120.552V4.06934H131.837V6.21649Z" fill="white"/>
<path d="M131.837 6.21649H127.447V19.3201H124.924V6.21649H120.552V4.06934H131.837V6.21649Z" fill="black" fill-opacity="0.75"/>
<path d="M143.821 18.6803C142.673 19.2768 141.243 19.5751 139.531 19.5751C137.321 19.5751 135.55 18.8764 134.219 17.479C132.889 16.0816 132.222 14.2491 132.219 11.9814C132.219 9.54209 132.968 7.57131 134.466 6.06905C135.965 4.56679 137.859 3.81771 140.15 3.82179C141.625 3.82179 142.851 4.03086 143.827 4.44899V6.95979C142.799 6.34923 141.622 6.03265 140.426 6.04454C138.774 6.04454 137.435 6.57299 136.409 7.62988C135.384 8.68677 134.872 10.0971 134.873 11.8609C134.873 13.5415 135.35 14.8797 136.303 15.8753C137.257 16.8709 138.515 17.3694 140.079 17.3707C141.399 17.4031 142.7 17.048 143.821 16.3492V18.6803Z" fill="white"/>
<path d="M143.821 18.6803C142.673 19.2768 141.243 19.5751 139.531 19.5751C137.321 19.5751 135.55 18.8764 134.219 17.479C132.889 16.0816 132.222 14.2491 132.219 11.9814C132.219 9.54209 132.968 7.57131 134.466 6.06905C135.965 4.56679 137.859 3.81771 140.15 3.82179C141.625 3.82179 142.851 4.03086 143.827 4.44899V6.95979C142.799 6.34923 141.622 6.03265 140.426 6.04454C138.774 6.04454 137.435 6.57299 136.409 7.62988C135.384 8.68677 134.872 10.0971 134.873 11.8609C134.873 13.5415 135.35 14.8797 136.303 15.8753C137.257 16.8709 138.515 17.3694 140.079 17.3707C141.399 17.4031 142.7 17.048 143.821 16.3492V18.6803Z" fill="black" fill-opacity="0.75"/>
<path d="M152.702 19.3201V4.06934H157.539C159.014 4.06934 160.182 4.39212 161.043 5.0377C161.449 5.31898 161.779 5.69598 162.005 6.13534C162.23 6.57469 162.344 7.06286 162.336 7.55667C162.351 8.36691 162.093 9.15861 161.603 9.80393C161.083 10.462 160.368 10.9384 159.56 11.1645V11.2074C160.511 11.2816 161.403 11.6948 162.075 12.3719C162.704 13.027 163.018 13.8796 163.017 14.9297C163.032 15.5428 162.9 16.1505 162.631 16.7018C162.363 17.2532 161.966 17.7321 161.474 18.0984C160.447 18.9074 159.15 19.3119 157.582 19.3119L152.702 19.3201ZM155.231 6.10004V10.4393H156.865C157.744 10.4393 158.434 10.235 158.935 9.8264C159.436 9.41781 159.685 8.8308 159.682 8.06537C159.682 6.76196 158.811 6.10957 157.067 6.10821L155.231 6.10004ZM155.231 12.47V17.3077H157.39C158.334 17.3077 159.063 17.0898 159.576 16.654C159.833 16.4311 160.035 16.1529 160.169 15.8405C160.302 15.528 160.363 15.1894 160.346 14.85C160.346 13.2688 159.251 12.4782 157.061 12.4782L155.231 12.47Z" fill="white"/>
<path d="M152.702 19.3201V4.06934H157.539C159.014 4.06934 160.182 4.39212 161.043 5.0377C161.449 5.31898 161.779 5.69598 162.005 6.13534C162.23 6.57469 162.344 7.06286 162.336 7.55667C162.351 8.36691 162.093 9.15861 161.603 9.80393C161.083 10.462 160.368 10.9384 159.56 11.1645V11.2074C160.511 11.2816 161.403 11.6948 162.075 12.3719C162.704 13.027 163.018 13.8796 163.017 14.9297C163.032 15.5428 162.9 16.1505 162.631 16.7018C162.363 17.2532 161.966 17.7321 161.474 18.0984C160.447 18.9074 159.15 19.3119 157.582 19.3119L152.702 19.3201ZM155.231 6.10004V10.4393H156.865C157.744 10.4393 158.434 10.235 158.935 9.8264C159.436 9.41781 159.685 8.8308 159.682 8.06537C159.682 6.76196 158.811 6.10957 157.067 6.10821L155.231 6.10004ZM155.231 12.47V17.3077H157.39C158.334 17.3077 159.063 17.0898 159.576 16.654C159.833 16.4311 160.035 16.1529 160.169 15.8405C160.302 15.528 160.363 15.1894 160.346 14.85C160.346 13.2688 159.251 12.4782 157.061 12.4782L155.231 12.47Z" fill="black" fill-opacity="0.75"/>
<path d="M173.938 19.3198H171.546V17.6181H171.503C170.751 18.9215 169.649 19.5739 168.195 19.5752C167.125 19.5752 166.287 19.2844 165.681 18.7029C165.075 18.1213 164.771 17.3518 164.771 16.3943C164.771 14.3391 165.955 13.1412 168.322 12.8007L171.556 12.3431C171.556 10.7905 170.819 10.0141 169.344 10.0141C168.048 10.0125 166.798 10.4898 165.834 11.3543V9.19492C167.042 8.49849 168.417 8.14528 169.811 8.17344C172.561 8.17344 173.937 9.52792 173.938 12.2369V19.3198ZM171.556 13.9693L169.27 14.288C168.703 14.3337 168.155 14.5107 167.668 14.8049C167.312 15.0569 167.132 15.4981 167.131 16.1287C167.125 16.3422 167.166 16.5543 167.252 16.75C167.337 16.9456 167.465 17.12 167.625 17.2605C167.995 17.5693 168.468 17.7269 168.949 17.7018C169.299 17.7108 169.646 17.645 169.969 17.5086C170.291 17.3722 170.58 17.1685 170.817 16.9112C171.315 16.3689 171.58 15.6531 171.556 14.9173V13.9693Z" fill="white"/>
<path d="M173.938 19.3198H171.546V17.6181H171.503C170.751 18.9215 169.649 19.5739 168.195 19.5752C167.125 19.5752 166.287 19.2844 165.681 18.7029C165.075 18.1213 164.771 17.3518 164.771 16.3943C164.771 14.3391 165.955 13.1412 168.322 12.8007L171.556 12.3431C171.556 10.7905 170.819 10.0141 169.344 10.0141C168.048 10.0125 166.798 10.4898 165.834 11.3543V9.19492C167.042 8.49849 168.417 8.14528 169.811 8.17344C172.561 8.17344 173.937 9.52792 173.938 12.2369V19.3198ZM171.556 13.9693L169.27 14.288C168.703 14.3337 168.155 14.5107 167.668 14.8049C167.312 15.0569 167.132 15.4981 167.131 16.1287C167.125 16.3422 167.166 16.5543 167.252 16.75C167.337 16.9456 167.465 17.12 167.625 17.2605C167.995 17.5693 168.468 17.7269 168.949 17.7018C169.299 17.7108 169.646 17.645 169.969 17.5086C170.291 17.3722 170.58 17.1685 170.817 16.9112C171.315 16.3689 171.58 15.6531 171.556 14.9173V13.9693Z" fill="black" fill-opacity="0.75"/>
<path d="M186.648 19.3197H184.18V13.1909C184.18 11.1561 183.46 10.1387 182.02 10.1387C181.667 10.1294 181.316 10.1996 180.993 10.3442C180.67 10.4889 180.384 10.7042 180.155 10.9742C179.655 11.5699 179.394 12.3299 179.422 13.1071V19.3177H176.948V8.42871H179.426V10.2367H179.469C180.286 8.8625 181.463 8.1747 182.999 8.17334C184.184 8.17334 185.088 8.5581 185.712 9.32761C186.336 10.0971 186.648 11.2085 186.648 12.6617V19.3197Z" fill="white"/>
<path d="M186.648 19.3197H184.18V13.1909C184.18 11.1561 183.46 10.1387 182.02 10.1387C181.667 10.1294 181.316 10.1996 180.993 10.3442C180.67 10.4889 180.384 10.7042 180.155 10.9742C179.655 11.5699 179.394 12.3299 179.422 13.1071V19.3177H176.948V8.42871H179.426V10.2367H179.469C180.286 8.8625 181.463 8.1747 182.999 8.17334C184.184 8.17334 185.088 8.5581 185.712 9.32761C186.336 10.0971 186.648 11.2085 186.648 12.6617V19.3197Z" fill="black" fill-opacity="0.75"/>
<path d="M199.534 19.3198H196.409L192.176 14.0878H192.135V19.3198H189.657V3.19678H192.135V13.4116H192.176L196.174 8.42268H199.142L194.648 13.6772L199.534 19.3198Z" fill="white"/>
<path d="M199.534 19.3198H196.409L192.176 14.0878H192.135V19.3198H189.657V3.19678H192.135V13.4116H192.176L196.174 8.42268H199.142L194.648 13.6772L199.534 19.3198Z" fill="black" fill-opacity="0.75"/>
<path d="M38.782 31.3797H38.0261L37.4132 29.7453H34.9413L34.359 31.3797H33.6011L35.834 25.5552H36.5348L38.782 31.3797ZM37.1844 29.1324L36.2712 26.6502C36.23 26.523 36.1999 26.3924 36.1813 26.26H36.165C36.1465 26.3926 36.1157 26.5232 36.0731 26.6502L35.166 29.1324H37.1844Z" fill="white"/>
<path d="M38.782 31.3797H38.0261L37.4132 29.7453H34.9413L34.359 31.3797H33.6011L35.834 25.5552H36.5348L38.782 31.3797ZM37.1844 29.1324L36.2712 26.6502C36.23 26.523 36.1999 26.3924 36.1813 26.26H36.165C36.1465 26.3926 36.1157 26.5232 36.0731 26.6502L35.166 29.1324H37.1844Z" fill="black" fill-opacity="0.75"/>
<path d="M47.7359 31.3795H47.0699V28.9892C47.0986 28.6435 47.0277 28.2969 46.8656 27.9902C46.7813 27.8831 46.6715 27.7987 46.5463 27.7448C46.4211 27.6909 46.2843 27.6693 46.1485 27.6817C46.0051 27.6833 45.8642 27.7195 45.7379 27.7875C45.6115 27.8555 45.5036 27.9531 45.4233 28.0719C45.2206 28.341 45.1155 28.6709 45.125 29.0076V31.3795H44.459V28.9095C44.459 28.0924 44.143 27.6838 43.5111 27.6838C43.3698 27.6824 43.2304 27.7151 43.1045 27.7791C42.9786 27.8432 42.87 27.9366 42.7879 28.0515C42.5878 28.3297 42.4877 28.6674 42.5039 29.0097V31.3815H41.8379V27.22H42.5039V27.8778H42.5202C42.643 27.6435 42.8292 27.4484 43.0574 27.3148C43.2857 27.1811 43.547 27.1143 43.8114 27.122C44.0787 27.1164 44.3402 27.1998 44.555 27.3589C44.7622 27.5111 44.9148 27.7261 44.9902 27.9718C45.1115 27.7095 45.3069 27.4883 45.5522 27.3355C45.7976 27.1827 46.0823 27.1049 46.3712 27.1117C47.2865 27.1117 47.7441 27.6763 47.7441 28.8054L47.7359 31.3795Z" fill="white"/>
<path d="M47.7359 31.3795H47.0699V28.9892C47.0986 28.6435 47.0277 28.2969 46.8656 27.9902C46.7813 27.8831 46.6715 27.7987 46.5463 27.7448C46.4211 27.6909 46.2843 27.6693 46.1485 27.6817C46.0051 27.6833 45.8642 27.7195 45.7379 27.7875C45.6115 27.8555 45.5036 27.9531 45.4233 28.0719C45.2206 28.341 45.1155 28.6709 45.125 29.0076V31.3795H44.459V28.9095C44.459 28.0924 44.143 27.6838 43.5111 27.6838C43.3698 27.6824 43.2304 27.7151 43.1045 27.7791C42.9786 27.8432 42.87 27.9366 42.7879 28.0515C42.5878 28.3297 42.4877 28.6674 42.5039 29.0097V31.3815H41.8379V27.22H42.5039V27.8778H42.5202C42.643 27.6435 42.8292 27.4484 43.0574 27.3148C43.2857 27.1811 43.547 27.1143 43.8114 27.122C44.0787 27.1164 44.3402 27.1998 44.555 27.3589C44.7622 27.5111 44.9148 27.7261 44.9902 27.9718C45.1115 27.7095 45.3069 27.4883 45.5522 27.3355C45.7976 27.1827 46.0823 27.1049 46.3712 27.1117C47.2865 27.1117 47.7441 27.6763 47.7441 28.8054L47.7359 31.3795Z" fill="black" fill-opacity="0.75"/>
<path d="M52.3391 29.4651H49.4054C49.3905 29.8569 49.524 30.24 49.7793 30.5376C49.9073 30.6661 50.061 30.7662 50.2303 30.8313C50.3997 30.8964 50.5808 30.9252 50.762 30.9156C51.2336 30.9149 51.6905 30.7511 52.0551 30.4518V31.079C51.6272 31.3655 51.1192 31.5086 50.6046 31.4876C50.3462 31.5008 50.088 31.4567 49.8486 31.3586C49.6091 31.2604 49.3943 31.1105 49.2195 30.9197C48.8817 30.5424 48.7135 30.0112 48.7149 29.3262C48.6906 28.7474 48.8878 28.1812 49.2665 27.7429C49.4353 27.5466 49.6453 27.39 49.8815 27.2841C50.1178 27.1781 50.3744 27.1255 50.6332 27.13C50.8699 27.1165 51.1065 27.1569 51.3252 27.2482C51.5439 27.3395 51.739 27.4793 51.8958 27.6571C52.2157 28.0767 52.3744 28.5972 52.3432 29.1239L52.3391 29.4651ZM51.6527 28.9012C51.6696 28.5784 51.5703 28.2603 51.3728 28.0044C51.2789 27.8965 51.1616 27.8114 51.03 27.7555C50.8983 27.6995 50.7557 27.6743 50.6128 27.6816C50.4632 27.6789 50.3147 27.7075 50.1768 27.7656C50.0389 27.8236 49.9146 27.9098 49.812 28.0187C49.5837 28.2608 49.4403 28.5705 49.4034 28.9012H51.6527Z" fill="white"/>
<path d="M52.3391 29.4651H49.4054C49.3905 29.8569 49.524 30.24 49.7793 30.5376C49.9073 30.6661 50.061 30.7662 50.2303 30.8313C50.3997 30.8964 50.5808 30.9252 50.762 30.9156C51.2336 30.9149 51.6905 30.7511 52.0551 30.4518V31.079C51.6272 31.3655 51.1192 31.5086 50.6046 31.4876C50.3462 31.5008 50.088 31.4567 49.8486 31.3586C49.6091 31.2604 49.3943 31.1105 49.2195 30.9197C48.8817 30.5424 48.7135 30.0112 48.7149 29.3262C48.6906 28.7474 48.8878 28.1812 49.2665 27.7429C49.4353 27.5466 49.6453 27.39 49.8815 27.2841C50.1178 27.1781 50.3744 27.1255 50.6332 27.13C50.8699 27.1165 51.1065 27.1569 51.3252 27.2482C51.5439 27.3395 51.739 27.4793 51.8958 27.6571C52.2157 28.0767 52.3744 28.5972 52.3432 29.1239L52.3391 29.4651ZM51.6527 28.9012C51.6696 28.5784 51.5703 28.2603 51.3728 28.0044C51.2789 27.8965 51.1616 27.8114 51.03 27.7555C50.8983 27.6995 50.7557 27.6743 50.6128 27.6816C50.4632 27.6789 50.3147 27.7075 50.1768 27.7656C50.0389 27.8236 49.9146 27.9098 49.812 28.0187C49.5837 28.2608 49.4403 28.5705 49.4034 28.9012H51.6527Z" fill="black" fill-opacity="0.75"/>
<path d="M59.2529 31.3798H58.5869V28.9895C58.6136 28.6428 58.5391 28.2957 58.3724 27.9905C58.2881 27.8834 58.1783 27.799 58.053 27.7451C57.9278 27.6912 57.7911 27.6696 57.6553 27.682C57.5122 27.6837 57.3716 27.7201 57.2456 27.7881C57.1197 27.856 57.0121 27.9535 56.9321 28.0722C56.7294 28.3413 56.6243 28.6712 56.6338 29.0079V31.3798H55.9658V28.9099C55.9658 28.0927 55.6505 27.6841 55.0199 27.6841C54.8786 27.6827 54.7392 27.7154 54.6133 27.7795C54.4874 27.8435 54.3788 27.9369 54.2967 28.0518C54.0966 28.33 53.9965 28.6677 54.0127 29.01V31.3818H53.3467V27.2203H54.0127V27.8782H54.029C54.1512 27.6406 54.3384 27.4426 54.5689 27.3073C54.7993 27.172 55.0634 27.105 55.3304 27.1141C55.594 27.1082 55.8523 27.1892 56.0653 27.3446C56.2784 27.5001 56.4343 27.7213 56.5092 27.9742C56.6305 27.7118 56.8259 27.4907 57.0713 27.3379C57.3166 27.1851 57.6013 27.1073 57.8902 27.1141C58.8055 27.1141 59.2631 27.6786 59.2631 28.8077L59.2529 31.3798Z" fill="white"/>
<path d="M59.2529 31.3798H58.5869V28.9895C58.6136 28.6428 58.5391 28.2957 58.3724 27.9905C58.2881 27.8834 58.1783 27.799 58.053 27.7451C57.9278 27.6912 57.7911 27.6696 57.6553 27.682C57.5122 27.6837 57.3716 27.7201 57.2456 27.7881C57.1197 27.856 57.0121 27.9535 56.9321 28.0722C56.7294 28.3413 56.6243 28.6712 56.6338 29.0079V31.3798H55.9658V28.9099C55.9658 28.0927 55.6505 27.6841 55.0199 27.6841C54.8786 27.6827 54.7392 27.7154 54.6133 27.7795C54.4874 27.8435 54.3788 27.9369 54.2967 28.0518C54.0966 28.33 53.9965 28.6677 54.0127 29.01V31.3818H53.3467V27.2203H54.0127V27.8782H54.029C54.1512 27.6406 54.3384 27.4426 54.5689 27.3073C54.7993 27.172 55.0634 27.105 55.3304 27.1141C55.594 27.1082 55.8523 27.1892 56.0653 27.3446C56.2784 27.5001 56.4343 27.7213 56.5092 27.9742C56.6305 27.7118 56.8259 27.4907 57.0713 27.3379C57.3166 27.1851 57.6013 27.1073 57.8902 27.1141C58.8055 27.1141 59.2631 27.6786 59.2631 28.8077L59.2529 31.3798Z" fill="black" fill-opacity="0.75"/>
<path d="M61.1931 30.7771H61.1768V31.39H60.5107V25.2202H61.1768V27.9517H61.1931C61.3312 27.6945 61.538 27.4807 61.7906 27.3342C62.0431 27.1878 62.3314 27.1144 62.6232 27.1222C62.8613 27.1109 63.0987 27.1555 63.3165 27.2523C63.5343 27.3491 63.7264 27.4956 63.8775 27.68C64.1971 28.1117 64.3567 28.641 64.329 29.1774C64.3592 29.7764 64.1801 30.3672 63.8224 30.8486C63.6562 31.0548 63.4439 31.2191 63.2026 31.3284C62.9613 31.4377 62.6978 31.4889 62.4332 31.4778C62.1821 31.4861 61.9335 31.4251 61.7148 31.3015C61.4961 31.1779 61.3156 30.9964 61.1931 30.7771ZM61.1768 29.0998V29.6821C61.1697 30.0061 61.29 30.3201 61.5118 30.5564C61.6312 30.6786 61.7755 30.7738 61.9348 30.8354C62.0942 30.8971 62.2649 30.924 62.4354 30.9141C62.606 30.9042 62.7725 30.8579 62.9236 30.7782C63.0748 30.6985 63.2071 30.5874 63.3116 30.4523C63.5612 30.0712 63.6815 29.6199 63.6549 29.1652C63.6779 28.7759 63.5645 28.3909 63.3341 28.0763C63.23 27.9476 63.0973 27.8449 62.9466 27.7765C62.7959 27.708 62.6313 27.6757 62.4659 27.682C62.2893 27.6759 62.1136 27.7094 61.9517 27.7801C61.7898 27.8508 61.6457 27.9569 61.5302 28.0906C61.2913 28.3715 61.1654 28.7312 61.1768 29.0998Z" fill="white"/>
<path d="M61.1931 30.7771H61.1768V31.39H60.5107V25.2202H61.1768V27.9517H61.1931C61.3312 27.6945 61.538 27.4807 61.7906 27.3342C62.0431 27.1878 62.3314 27.1144 62.6232 27.1222C62.8613 27.1109 63.0987 27.1555 63.3165 27.2523C63.5343 27.3491 63.7264 27.4956 63.8775 27.68C64.1971 28.1117 64.3567 28.641 64.329 29.1774C64.3592 29.7764 64.1801 30.3672 63.8224 30.8486C63.6562 31.0548 63.4439 31.2191 63.2026 31.3284C62.9613 31.4377 62.6978 31.4889 62.4332 31.4778C62.1821 31.4861 61.9335 31.4251 61.7148 31.3015C61.4961 31.1779 61.3156 30.9964 61.1931 30.7771ZM61.1768 29.0998V29.6821C61.1697 30.0061 61.29 30.3201 61.5118 30.5564C61.6312 30.6786 61.7755 30.7738 61.9348 30.8354C62.0942 30.8971 62.2649 30.924 62.4354 30.9141C62.606 30.9042 62.7725 30.8579 62.9236 30.7782C63.0748 30.6985 63.2071 30.5874 63.3116 30.4523C63.5612 30.0712 63.6815 29.6199 63.6549 29.1652C63.6779 28.7759 63.5645 28.3909 63.3341 28.0763C63.23 27.9476 63.0973 27.8449 62.9466 27.7765C62.7959 27.708 62.6313 27.6757 62.4659 27.682C62.2893 27.6759 62.1136 27.7094 61.9517 27.7801C61.7898 27.8508 61.6457 27.9569 61.5302 28.0906C61.2913 28.3715 61.1654 28.7312 61.1768 29.0998Z" fill="black" fill-opacity="0.75"/>
<path d="M68.746 29.4651H65.8083C65.7925 29.857 65.9261 30.2404 66.1821 30.5376C66.3102 30.6661 66.4639 30.7662 66.6332 30.8313C66.8025 30.8964 66.9836 30.9252 67.1648 30.9156C67.6358 30.9144 68.0919 30.7506 68.4559 30.4518V31.079C68.0287 31.3655 67.5214 31.5086 67.0075 31.4876C66.749 31.5008 66.4908 31.4567 66.2514 31.3586C66.0119 31.2604 65.7971 31.1105 65.6223 30.9197C65.2859 30.5424 65.1177 30.0112 65.1177 29.3262C65.0934 28.7474 65.2907 28.1812 65.6693 27.7429C65.8382 27.5466 66.0482 27.39 66.2844 27.2841C66.5206 27.1781 66.7772 27.1255 67.0361 27.13C67.2727 27.1165 67.5093 27.1569 67.728 27.2482C67.9467 27.3395 68.1418 27.4793 68.2986 27.6571C68.6185 28.0767 68.7773 28.5972 68.746 29.1239V29.4651ZM68.0637 28.9012C68.0806 28.5784 67.9813 28.2603 67.7838 28.0044C67.6899 27.8965 67.5726 27.8114 67.441 27.7555C67.3093 27.6995 67.1667 27.6743 67.0238 27.6816C66.8742 27.6789 66.7257 27.7075 66.5878 27.7656C66.4499 27.8236 66.3256 27.9098 66.223 28.0187C65.9947 28.2608 65.8513 28.5705 65.8144 28.9012H68.0637Z" fill="white"/>
<path d="M68.746 29.4651H65.8083C65.7925 29.857 65.9261 30.2404 66.1821 30.5376C66.3102 30.6661 66.4639 30.7662 66.6332 30.8313C66.8025 30.8964 66.9836 30.9252 67.1648 30.9156C67.6358 30.9144 68.0919 30.7506 68.4559 30.4518V31.079C68.0287 31.3655 67.5214 31.5086 67.0075 31.4876C66.749 31.5008 66.4908 31.4567 66.2514 31.3586C66.0119 31.2604 65.7971 31.1105 65.6223 30.9197C65.2859 30.5424 65.1177 30.0112 65.1177 29.3262C65.0934 28.7474 65.2907 28.1812 65.6693 27.7429C65.8382 27.5466 66.0482 27.39 66.2844 27.2841C66.5206 27.1781 66.7772 27.1255 67.0361 27.13C67.2727 27.1165 67.5093 27.1569 67.728 27.2482C67.9467 27.3395 68.1418 27.4793 68.2986 27.6571C68.6185 28.0767 68.7773 28.5972 68.746 29.1239V29.4651ZM68.0637 28.9012C68.0806 28.5784 67.9813 28.2603 67.7838 28.0044C67.6899 27.8965 67.5726 27.8114 67.441 27.7555C67.3093 27.6995 67.1667 27.6743 67.0238 27.6816C66.8742 27.6789 66.7257 27.7075 66.5878 27.7656C66.4499 27.8236 66.3256 27.9098 66.223 28.0187C65.9947 28.2608 65.8513 28.5705 65.8144 28.9012H68.0637Z" fill="black" fill-opacity="0.75"/>
<path d="M71.923 27.8938C71.7741 27.7949 71.5969 27.7475 71.4184 27.759C71.2748 27.7614 71.1341 27.8002 71.0094 27.8716C70.8847 27.9431 70.7802 28.0449 70.7054 28.1676C70.4986 28.4947 70.3986 28.8782 70.4194 29.2647V31.3853H69.7534V27.2197H70.4194V28.0757H70.4358C70.5127 27.8107 70.6637 27.5733 70.8709 27.3913C71.0519 27.2329 71.2842 27.1458 71.5247 27.1461C71.6633 27.1386 71.802 27.158 71.9333 27.2033L71.923 27.8938Z" fill="white"/>
<path d="M71.923 27.8938C71.7741 27.7949 71.5969 27.7475 71.4184 27.759C71.2748 27.7614 71.1341 27.8002 71.0094 27.8716C70.8847 27.9431 70.7802 28.0449 70.7054 28.1676C70.4986 28.4947 70.3986 28.8782 70.4194 29.2647V31.3853H69.7534V27.2197H70.4194V28.0757H70.4358C70.5127 27.8107 70.6637 27.5733 70.8709 27.3913C71.0519 27.2329 71.2842 27.1458 71.5247 27.1461C71.6633 27.1386 71.802 27.158 71.9333 27.2033L71.923 27.8938Z" fill="black" fill-opacity="0.75"/>
<path d="M76.6628 31.4776C76.39 31.4897 76.1176 31.4439 75.8638 31.3432C75.6099 31.2425 75.3802 31.0891 75.1898 30.8933C74.81 30.4712 74.6124 29.916 74.6403 29.3488C74.6403 28.6501 74.8303 28.1026 75.2123 27.7145C75.4147 27.5125 75.6569 27.3548 75.9235 27.2514C76.1901 27.148 76.4752 27.1012 76.7609 27.1138C77.0296 27.0986 77.2985 27.1418 77.5489 27.2406C77.7993 27.3394 78.0254 27.4913 78.2114 27.6858C78.5601 28.0672 78.7344 28.597 78.7344 29.2753C78.7615 29.8593 78.56 30.4309 78.1726 30.8688C77.9788 31.0719 77.7438 31.2313 77.4835 31.3363C77.2231 31.4413 76.9433 31.4895 76.6628 31.4776ZM76.7119 27.6818C76.5196 27.6724 76.3277 27.7068 76.1507 27.7826C75.9737 27.8583 75.8163 27.9734 75.6904 28.119C75.424 28.4623 75.2912 28.8905 75.3165 29.3243C75.2921 29.7461 75.427 30.1617 75.6945 30.4888C75.822 30.6317 75.98 30.7442 76.1568 30.8181C76.3335 30.892 76.5246 30.9254 76.7159 30.9158C76.9025 30.9271 77.0892 30.8953 77.2614 30.8226C77.4336 30.75 77.5868 30.6385 77.7088 30.497C77.9603 30.1536 78.0833 29.7327 78.0561 29.308C78.0835 28.8787 77.9607 28.4533 77.7088 28.1047C77.5869 27.9615 77.4334 27.8488 77.2603 27.7754C77.0873 27.702 76.8995 27.6699 76.7119 27.6818Z" fill="white"/>
<path d="M76.6628 31.4776C76.39 31.4897 76.1176 31.4439 75.8638 31.3432C75.6099 31.2425 75.3802 31.0891 75.1898 30.8933C74.81 30.4712 74.6124 29.916 74.6403 29.3488C74.6403 28.6501 74.8303 28.1026 75.2123 27.7145C75.4147 27.5125 75.6569 27.3548 75.9235 27.2514C76.1901 27.148 76.4752 27.1012 76.7609 27.1138C77.0296 27.0986 77.2985 27.1418 77.5489 27.2406C77.7993 27.3394 78.0254 27.4913 78.2114 27.6858C78.5601 28.0672 78.7344 28.597 78.7344 29.2753C78.7615 29.8593 78.56 30.4309 78.1726 30.8688C77.9788 31.0719 77.7438 31.2313 77.4835 31.3363C77.2231 31.4413 76.9433 31.4895 76.6628 31.4776ZM76.7119 27.6818C76.5196 27.6724 76.3277 27.7068 76.1507 27.7826C75.9737 27.8583 75.8163 27.9734 75.6904 28.119C75.424 28.4623 75.2912 28.8905 75.3165 29.3243C75.2921 29.7461 75.427 30.1617 75.6945 30.4888C75.822 30.6317 75.98 30.7442 76.1568 30.8181C76.3335 30.892 76.5246 30.9254 76.7159 30.9158C76.9025 30.9271 77.0892 30.8953 77.2614 30.8226C77.4336 30.75 77.5868 30.6385 77.7088 30.497C77.9603 30.1536 78.0833 29.7327 78.0561 29.308C78.0835 28.8787 77.9607 28.4533 77.7088 28.1047C77.5869 27.9615 77.4334 27.8488 77.2603 27.7754C77.0873 27.702 76.8995 27.6699 76.7119 27.6818Z" fill="black" fill-opacity="0.75"/>
<path d="M81.8538 25.8064C81.7182 25.7315 81.5653 25.6935 81.4104 25.6961C80.9446 25.6961 80.7117 25.9896 80.7117 26.5766V27.2202H81.6842V27.7881H80.7097V31.3796H80.0498V27.7881H79.3389V27.2202H80.0498V26.5439C80.04 26.3554 80.0684 26.1667 80.1333 25.9894C80.1983 25.8121 80.2984 25.6498 80.4278 25.5122C80.55 25.3873 80.6968 25.2891 80.8589 25.2237C81.021 25.1583 81.1949 25.1272 81.3696 25.1322C81.534 25.1262 81.6981 25.1505 81.8538 25.2038V25.8064Z" fill="white"/>
<path d="M81.8538 25.8064C81.7182 25.7315 81.5653 25.6935 81.4104 25.6961C80.9446 25.6961 80.7117 25.9896 80.7117 26.5766V27.2202H81.6842V27.7881H80.7097V31.3796H80.0498V27.7881H79.3389V27.2202H80.0498V26.5439C80.04 26.3554 80.0684 26.1667 80.1333 25.9894C80.1983 25.8121 80.2984 25.6498 80.4278 25.5122C80.55 25.3873 80.6968 25.2891 80.8589 25.2237C81.021 25.1583 81.1949 25.1272 81.3696 25.1322C81.534 25.1262 81.6981 25.1505 81.8538 25.2038V25.8064Z" fill="black" fill-opacity="0.75"/>
<path d="M84.4995 31.1428V30.3399C84.5993 30.4275 84.7107 30.5011 84.8305 30.5585C84.9619 30.6247 85.0986 30.68 85.2391 30.724C85.3799 30.7667 85.5231 30.8008 85.6681 30.8261C85.7996 30.8495 85.9329 30.8618 86.0665 30.8629C86.3965 30.8869 86.7256 30.8053 87.0062 30.63C87.1584 30.4997 87.2615 30.3214 87.2987 30.1245C87.3358 29.9277 87.3047 29.724 87.2105 29.5472C87.1352 29.4246 87.0383 29.3166 86.9245 29.2285C86.7885 29.1241 86.6435 29.0319 86.4914 28.9527C86.3239 28.8649 86.1441 28.7709 85.9521 28.6749C85.76 28.5789 85.5598 28.4706 85.3841 28.3603C85.2173 28.2629 85.063 28.1456 84.9244 28.0109C84.7973 27.8868 84.6935 27.7408 84.618 27.5799C84.5409 27.4007 84.5033 27.207 84.5077 27.0119C84.5014 26.7696 84.5614 26.5301 84.6813 26.3194C84.7959 26.1252 84.9531 25.9597 85.141 25.8352C85.339 25.704 85.558 25.608 85.7886 25.5512C86.0308 25.4882 86.28 25.4566 86.5302 25.4572C86.9584 25.4291 87.3874 25.499 87.7846 25.6615V26.4297C87.3908 26.1766 86.9284 26.0517 86.4608 26.0722C86.3104 26.0716 86.1603 26.0874 86.0133 26.1192C85.8726 26.1465 85.7378 26.1984 85.615 26.2724C85.5011 26.3396 85.4041 26.4318 85.331 26.5421C85.2551 26.6645 85.2174 26.8067 85.2227 26.9506C85.2191 27.0833 85.2472 27.215 85.3044 27.3347C85.3652 27.4497 85.4494 27.5506 85.5516 27.631C85.6741 27.7309 85.8062 27.8185 85.9459 27.8924C86.1012 27.9762 86.283 28.0681 86.4853 28.1682C86.6875 28.2683 86.8939 28.3725 87.0777 28.4931C87.2556 28.6001 87.4208 28.7269 87.5701 28.871C87.7064 29.0039 87.8197 29.1585 87.9051 29.3287C87.9894 29.5096 88.0313 29.7073 88.0277 29.9068C88.036 30.1603 87.9782 30.4116 87.8602 30.6361C87.7501 30.8323 87.5937 30.9985 87.4046 31.1203C87.203 31.2503 86.9794 31.3424 86.7447 31.392C86.4857 31.4487 86.2213 31.4767 85.9561 31.4758C85.842 31.4742 85.7281 31.466 85.615 31.4513C85.4801 31.437 85.3412 31.4166 85.2064 31.388C85.0715 31.361 84.9384 31.3256 84.808 31.2817C84.6988 31.2511 84.5948 31.2043 84.4995 31.1428Z" fill="white"/>
<path d="M84.4995 31.1428V30.3399C84.5993 30.4275 84.7107 30.5011 84.8305 30.5585C84.9619 30.6247 85.0986 30.68 85.2391 30.724C85.3799 30.7667 85.5231 30.8008 85.6681 30.8261C85.7996 30.8495 85.9329 30.8618 86.0665 30.8629C86.3965 30.8869 86.7256 30.8053 87.0062 30.63C87.1584 30.4997 87.2615 30.3214 87.2987 30.1245C87.3358 29.9277 87.3047 29.724 87.2105 29.5472C87.1352 29.4246 87.0383 29.3166 86.9245 29.2285C86.7885 29.1241 86.6435 29.0319 86.4914 28.9527C86.3239 28.8649 86.1441 28.7709 85.9521 28.6749C85.76 28.5789 85.5598 28.4706 85.3841 28.3603C85.2173 28.2629 85.063 28.1456 84.9244 28.0109C84.7973 27.8868 84.6935 27.7408 84.618 27.5799C84.5409 27.4007 84.5033 27.207 84.5077 27.0119C84.5014 26.7696 84.5614 26.5301 84.6813 26.3194C84.7959 26.1252 84.9531 25.9597 85.141 25.8352C85.339 25.704 85.558 25.608 85.7886 25.5512C86.0308 25.4882 86.28 25.4566 86.5302 25.4572C86.9584 25.4291 87.3874 25.499 87.7846 25.6615V26.4297C87.3908 26.1766 86.9284 26.0517 86.4608 26.0722C86.3104 26.0716 86.1603 26.0874 86.0133 26.1192C85.8726 26.1465 85.7378 26.1984 85.615 26.2724C85.5011 26.3396 85.4041 26.4318 85.331 26.5421C85.2551 26.6645 85.2174 26.8067 85.2227 26.9506C85.2191 27.0833 85.2472 27.215 85.3044 27.3347C85.3652 27.4497 85.4494 27.5506 85.5516 27.631C85.6741 27.7309 85.8062 27.8185 85.9459 27.8924C86.1012 27.9762 86.283 28.0681 86.4853 28.1682C86.6875 28.2683 86.8939 28.3725 87.0777 28.4931C87.2556 28.6001 87.4208 28.7269 87.5701 28.871C87.7064 29.0039 87.8197 29.1585 87.9051 29.3287C87.9894 29.5096 88.0313 29.7073 88.0277 29.9068C88.036 30.1603 87.9782 30.4116 87.8602 30.6361C87.7501 30.8323 87.5937 30.9985 87.4046 31.1203C87.203 31.2503 86.9794 31.3424 86.7447 31.392C86.4857 31.4487 86.2213 31.4767 85.9561 31.4758C85.842 31.4742 85.7281 31.466 85.615 31.4513C85.4801 31.437 85.3412 31.4166 85.2064 31.388C85.0715 31.361 84.9384 31.3256 84.808 31.2817C84.6988 31.2511 84.5948 31.2043 84.4995 31.1428Z" fill="black" fill-opacity="0.75"/>
<path d="M90.7632 31.3385C90.5695 31.433 90.3554 31.478 90.1401 31.4693C89.4128 31.4693 89.0471 31.0607 89.0471 30.2435V27.7879H88.332V27.2199H89.0389V26.1984L89.7069 25.9941V27.2199H90.755V27.7879H89.7069V30.1311C89.6884 30.34 89.7378 30.5492 89.8479 30.7277C89.9071 30.7924 89.9806 30.8424 90.0625 30.8736C90.1445 30.9048 90.2326 30.9164 90.3198 30.9075C90.4764 30.9117 90.6298 30.8627 90.755 30.7685L90.7632 31.3385Z" fill="white"/>
<path d="M90.7632 31.3385C90.5695 31.433 90.3554 31.478 90.1401 31.4693C89.4128 31.4693 89.0471 31.0607 89.0471 30.2435V27.7879H88.332V27.2199H89.0389V26.1984L89.7069 25.9941V27.2199H90.755V27.7879H89.7069V30.1311C89.6884 30.34 89.7378 30.5492 89.8479 30.7277C89.9071 30.7924 89.9806 30.8424 90.0625 30.8736C90.1445 30.9048 90.2326 30.9164 90.3198 30.9075C90.4764 30.9117 90.6298 30.8627 90.755 30.7685L90.7632 31.3385Z" fill="black" fill-opacity="0.75"/>
<path d="M94.6287 31.3796H93.9627V30.7279H93.9422C93.8209 30.9602 93.6366 31.1538 93.4104 31.2864C93.1843 31.4189 92.9254 31.4852 92.6633 31.4777C92.3084 31.4989 91.9592 31.38 91.6909 31.1467C91.5733 31.0349 91.4811 30.8992 91.4205 30.7487C91.3599 30.5982 91.3323 30.4364 91.3395 30.2743C91.3395 29.4953 91.7971 29.0431 92.7124 28.9178L93.9586 28.7421C93.9586 28.0353 93.6733 27.6818 93.1026 27.6818C92.6029 27.6811 92.1203 27.8635 91.7461 28.1946V27.5225C92.169 27.2586 92.6593 27.123 93.1577 27.1323C94.137 27.1323 94.626 27.6498 94.6246 28.6849L94.6287 31.3796ZM93.9627 29.2753L92.9596 29.4122C92.7122 29.4351 92.4732 29.514 92.2609 29.6431C92.1763 29.7129 92.1105 29.8027 92.0695 29.9044C92.0284 30.006 92.0135 30.1164 92.0259 30.2253C92.0231 30.3192 92.041 30.4126 92.0784 30.4988C92.1159 30.585 92.1719 30.6618 92.2425 30.7238C92.4045 30.8578 92.6107 30.9263 92.8207 30.9158C92.9738 30.9198 93.126 30.8908 93.267 30.8309C93.4079 30.771 93.5344 30.6815 93.6378 30.5685C93.8574 30.3299 93.9735 30.0141 93.9606 29.6901L93.9627 29.2753Z" fill="white"/>
<path d="M94.6287 31.3796H93.9627V30.7279H93.9422C93.8209 30.9602 93.6366 31.1538 93.4104 31.2864C93.1843 31.4189 92.9254 31.4852 92.6633 31.4777C92.3084 31.4989 91.9592 31.38 91.6909 31.1467C91.5733 31.0349 91.4811 30.8992 91.4205 30.7487C91.3599 30.5982 91.3323 30.4364 91.3395 30.2743C91.3395 29.4953 91.7971 29.0431 92.7124 28.9178L93.9586 28.7421C93.9586 28.0353 93.6733 27.6818 93.1026 27.6818C92.6029 27.6811 92.1203 27.8635 91.7461 28.1946V27.5225C92.169 27.2586 92.6593 27.123 93.1577 27.1323C94.137 27.1323 94.626 27.6498 94.6246 28.6849L94.6287 31.3796ZM93.9627 29.2753L92.9596 29.4122C92.7122 29.4351 92.4732 29.514 92.2609 29.6431C92.1763 29.7129 92.1105 29.8027 92.0695 29.9044C92.0284 30.006 92.0135 30.1164 92.0259 30.2253C92.0231 30.3192 92.041 30.4126 92.0784 30.4988C92.1159 30.585 92.1719 30.6618 92.2425 30.7238C92.4045 30.8578 92.6107 30.9263 92.8207 30.9158C92.9738 30.9198 93.126 30.8908 93.267 30.8309C93.4079 30.771 93.5344 30.6815 93.6378 30.5685C93.8574 30.3299 93.9735 30.0141 93.9606 29.6901L93.9627 29.2753Z" fill="black" fill-opacity="0.75"/>
<path d="M99.3374 31.3796H98.6714V29.0078C98.6714 28.1238 98.3493 27.6819 97.705 27.6819C97.5478 27.679 97.392 27.7113 97.2488 27.7763C97.1057 27.8413 96.9789 27.9375 96.8776 28.0578C96.6545 28.3229 96.538 28.6615 96.5508 29.0078V31.3796H95.8848V27.2202H96.5508V27.9107H96.5671C96.6992 27.6657 96.8967 27.4622 97.1377 27.3229C97.3787 27.1837 97.6536 27.1142 97.9318 27.1221C98.1281 27.1098 98.3246 27.1433 98.5057 27.2199C98.6869 27.2965 98.8478 27.4141 98.9758 27.5634C99.2401 27.9329 99.3679 28.3828 99.3374 28.8361V31.3796Z" fill="white"/>
<path d="M99.3374 31.3796H98.6714V29.0078C98.6714 28.1238 98.3493 27.6819 97.705 27.6819C97.5478 27.679 97.392 27.7113 97.2488 27.7763C97.1057 27.8413 96.9789 27.9375 96.8776 28.0578C96.6545 28.3229 96.538 28.6615 96.5508 29.0078V31.3796H95.8848V27.2202H96.5508V27.9107H96.5671C96.6992 27.6657 96.8967 27.4622 97.1377 27.3229C97.3787 27.1837 97.6536 27.1142 97.9318 27.1221C98.1281 27.1098 98.3246 27.1433 98.5057 27.2199C98.6869 27.2965 98.8478 27.4141 98.9758 27.5634C99.2401 27.9329 99.3679 28.3828 99.3374 28.8361V31.3796Z" fill="black" fill-opacity="0.75"/>
<path d="M104.143 31.3798H103.477V30.6729H103.46C103.324 30.8964 103.138 31.085 102.915 31.2234C102.693 31.3619 102.442 31.4464 102.181 31.4702C101.92 31.4941 101.658 31.4565 101.414 31.3606C101.17 31.2648 100.953 31.1132 100.778 30.918C100.445 30.4839 100.278 29.9446 100.308 29.3981C100.278 28.8019 100.463 28.2147 100.829 27.7433C100.998 27.542 101.21 27.382 101.45 27.2757C101.691 27.1695 101.952 27.1198 102.214 27.1304C102.464 27.1141 102.714 27.1688 102.934 27.288C103.155 27.4073 103.337 27.5863 103.46 27.8046H103.477V25.2202H104.143V31.3798ZM103.477 29.4982V28.8853C103.481 28.728 103.453 28.5715 103.396 28.4249C103.339 28.2783 103.253 28.1445 103.144 28.0313C103.036 27.9169 102.905 27.8266 102.759 27.7664C102.614 27.7062 102.457 27.6774 102.3 27.682C102.116 27.6743 101.933 27.711 101.766 27.7888C101.598 27.8667 101.452 27.9835 101.34 28.1294C101.09 28.4876 100.967 28.9191 100.991 29.3552C100.968 29.7604 101.087 30.1609 101.326 30.489C101.433 30.6228 101.571 30.7294 101.727 30.8004C101.884 30.8714 102.055 30.9047 102.227 30.8976C102.398 30.902 102.568 30.8675 102.725 30.7968C102.881 30.726 103.02 30.6208 103.13 30.489C103.362 30.2118 103.485 29.8596 103.477 29.4982Z" fill="white"/>
<path d="M104.143 31.3798H103.477V30.6729H103.46C103.324 30.8964 103.138 31.085 102.915 31.2234C102.693 31.3619 102.442 31.4464 102.181 31.4702C101.92 31.4941 101.658 31.4565 101.414 31.3606C101.17 31.2648 100.953 31.1132 100.778 30.918C100.445 30.4839 100.278 29.9446 100.308 29.3981C100.278 28.8019 100.463 28.2147 100.829 27.7433C100.998 27.542 101.21 27.382 101.45 27.2757C101.691 27.1695 101.952 27.1198 102.214 27.1304C102.464 27.1141 102.714 27.1688 102.934 27.288C103.155 27.4073 103.337 27.5863 103.46 27.8046H103.477V25.2202H104.143V31.3798ZM103.477 29.4982V28.8853C103.481 28.728 103.453 28.5715 103.396 28.4249C103.339 28.2783 103.253 28.1445 103.144 28.0313C103.036 27.9169 102.905 27.8266 102.759 27.7664C102.614 27.7062 102.457 27.6774 102.3 27.682C102.116 27.6743 101.933 27.711 101.766 27.7888C101.598 27.8667 101.452 27.9835 101.34 28.1294C101.09 28.4876 100.967 28.9191 100.991 29.3552C100.968 29.7604 101.087 30.1609 101.326 30.489C101.433 30.6228 101.571 30.7294 101.727 30.8004C101.884 30.8714 102.055 30.9047 102.227 30.8976C102.398 30.902 102.568 30.8675 102.725 30.7968C102.881 30.726 103.02 30.6208 103.13 30.489C103.362 30.2118 103.485 29.8596 103.477 29.4982Z" fill="black" fill-opacity="0.75"/>
<path d="M108.467 31.3796H107.801V30.7279H107.785C107.664 30.9606 107.48 31.1544 107.254 31.287C107.027 31.4196 106.768 31.4857 106.506 31.4777C106.151 31.4984 105.802 31.3797 105.534 31.1467C105.416 31.0349 105.324 30.8992 105.263 30.7487C105.203 30.5982 105.175 30.4364 105.182 30.2743C105.182 29.4953 105.64 29.0431 106.555 28.9178L107.801 28.7421C107.801 28.0353 107.517 27.6818 106.945 27.6818C106.446 27.6811 105.963 27.8635 105.589 28.1946V27.5225C106.012 27.2585 106.504 27.123 107.003 27.1323C107.979 27.1323 108.467 27.6498 108.467 28.6849V31.3796ZM107.801 29.2754L106.798 29.4122C106.551 29.4351 106.312 29.514 106.1 29.6431C106.015 29.7129 105.949 29.8027 105.908 29.9044C105.867 30.006 105.852 30.1164 105.865 30.2253C105.862 30.3195 105.88 30.4131 105.917 30.4993C105.955 30.5856 106.012 30.6623 106.083 30.7238C106.245 30.8585 106.451 30.9271 106.661 30.9158C106.814 30.9194 106.967 30.8902 107.107 30.8304C107.248 30.7705 107.375 30.6812 107.479 30.5685C107.696 30.3287 107.811 30.0135 107.799 29.6901L107.801 29.2754Z" fill="white"/>
<path d="M108.467 31.3796H107.801V30.7279H107.785C107.664 30.9606 107.48 31.1544 107.254 31.287C107.027 31.4196 106.768 31.4857 106.506 31.4777C106.151 31.4984 105.802 31.3797 105.534 31.1467C105.416 31.0349 105.324 30.8992 105.263 30.7487C105.203 30.5982 105.175 30.4364 105.182 30.2743C105.182 29.4953 105.64 29.0431 106.555 28.9178L107.801 28.7421C107.801 28.0353 107.517 27.6818 106.945 27.6818C106.446 27.6811 105.963 27.8635 105.589 28.1946V27.5225C106.012 27.2585 106.504 27.123 107.003 27.1323C107.979 27.1323 108.467 27.6498 108.467 28.6849V31.3796ZM107.801 29.2754L106.798 29.4122C106.551 29.4351 106.312 29.514 106.1 29.6431C106.015 29.7129 105.949 29.8027 105.908 29.9044C105.867 30.006 105.852 30.1164 105.865 30.2253C105.862 30.3195 105.88 30.4131 105.917 30.4993C105.955 30.5856 106.012 30.6623 106.083 30.7238C106.245 30.8585 106.451 30.9271 106.661 30.9158C106.814 30.9194 106.967 30.8902 107.107 30.8304C107.248 30.7705 107.375 30.6812 107.479 30.5685C107.696 30.3287 107.811 30.0135 107.799 29.6901L107.801 29.2754Z" fill="black" fill-opacity="0.75"/>
<path d="M111.894 27.8939C111.745 27.795 111.568 27.7476 111.389 27.759C111.246 27.7617 111.105 27.8005 110.98 27.8719C110.856 27.9434 110.751 28.0451 110.676 28.1676C110.469 28.4948 110.369 28.8782 110.39 29.2647V31.3853H109.724V27.2197H110.39V28.0757H110.406C110.484 27.8111 110.635 27.5739 110.842 27.3913C111.023 27.233 111.255 27.1458 111.495 27.1462C111.634 27.1385 111.773 27.1579 111.904 27.2034L111.894 27.8939Z" fill="white"/>
<path d="M111.894 27.8939C111.745 27.795 111.568 27.7476 111.389 27.759C111.246 27.7617 111.105 27.8005 110.98 27.8719C110.856 27.9434 110.751 28.0451 110.676 28.1676C110.469 28.4948 110.369 28.8782 110.39 29.2647V31.3853H109.724V27.2197H110.39V28.0757H110.406C110.484 27.8111 110.635 27.5739 110.842 27.3913C111.023 27.233 111.255 27.1458 111.495 27.1462C111.634 27.1385 111.773 27.1579 111.904 27.2034L111.894 27.8939Z" fill="black" fill-opacity="0.75"/>
<path d="M116.167 31.3798H115.501V30.6729H115.483C115.345 30.9285 115.138 31.1398 114.885 31.2823C114.631 31.4248 114.343 31.4926 114.053 31.4778C113.815 31.4865 113.578 31.4406 113.361 31.3435C113.143 31.2465 112.951 31.101 112.799 30.918C112.466 30.4836 112.3 29.9444 112.331 29.3981C112.3 28.8021 112.484 28.215 112.85 27.7433C113.019 27.5423 113.231 27.3826 113.471 27.2764C113.711 27.1702 113.973 27.1202 114.235 27.1304C114.485 27.1139 114.735 27.1684 114.955 27.2877C115.176 27.407 115.358 27.5862 115.481 27.8046H115.499V25.2202H116.165L116.167 31.3798ZM115.501 29.4982V28.8853C115.505 28.728 115.477 28.5717 115.42 28.4251C115.363 28.2786 115.277 28.1448 115.168 28.0313C115.06 27.9168 114.929 27.8265 114.783 27.7663C114.637 27.7061 114.48 27.6774 114.323 27.682C114.139 27.6743 113.956 27.711 113.789 27.7888C113.622 27.8667 113.477 27.9835 113.365 28.1294C113.115 28.4876 112.992 28.9191 113.015 29.3552C112.992 29.7605 113.111 30.1613 113.35 30.489C113.457 30.6229 113.595 30.7296 113.751 30.8006C113.907 30.8716 114.078 30.9048 114.249 30.8976C114.421 30.9022 114.591 30.8678 114.748 30.797C114.904 30.7262 115.042 30.6209 115.152 30.489C115.385 30.2121 115.509 29.8599 115.501 29.4982Z" fill="white"/>
<path d="M116.167 31.3798H115.501V30.6729H115.483C115.345 30.9285 115.138 31.1398 114.885 31.2823C114.631 31.4248 114.343 31.4926 114.053 31.4778C113.815 31.4865 113.578 31.4406 113.361 31.3435C113.143 31.2465 112.951 31.101 112.799 30.918C112.466 30.4836 112.3 29.9444 112.331 29.3981C112.3 28.8021 112.484 28.215 112.85 27.7433C113.019 27.5423 113.231 27.3826 113.471 27.2764C113.711 27.1702 113.973 27.1202 114.235 27.1304C114.485 27.1139 114.735 27.1684 114.955 27.2877C115.176 27.407 115.358 27.5862 115.481 27.8046H115.499V25.2202H116.165L116.167 31.3798ZM115.501 29.4982V28.8853C115.505 28.728 115.477 28.5717 115.42 28.4251C115.363 28.2786 115.277 28.1448 115.168 28.0313C115.06 27.9168 114.929 27.8265 114.783 27.7663C114.637 27.7061 114.48 27.6774 114.323 27.682C114.139 27.6743 113.956 27.711 113.789 27.7888C113.622 27.8667 113.477 27.9835 113.365 28.1294C113.115 28.4876 112.992 28.9191 113.015 29.3552C112.992 29.7605 113.111 30.1613 113.35 30.489C113.457 30.6229 113.595 30.7296 113.751 30.8006C113.907 30.8716 114.078 30.9048 114.249 30.8976C114.421 30.9022 114.591 30.8678 114.748 30.797C114.904 30.7262 115.042 30.6209 115.152 30.489C115.385 30.2121 115.509 29.8599 115.501 29.4982Z" fill="black" fill-opacity="0.75"/>
<path d="M119.887 31.3793V25.5548H121.544C121.975 25.5318 122.4 25.6621 122.743 25.9226C122.886 26.0387 123 26.1861 123.076 26.3533C123.153 26.5205 123.19 26.7031 123.185 26.8869C123.192 27.1951 123.098 27.4973 122.917 27.7469C122.732 27.9949 122.473 28.1774 122.177 28.2679V28.2842C122.535 28.3131 122.871 28.4706 123.121 28.7276C123.363 28.9948 123.49 29.3462 123.475 29.7061C123.482 29.9352 123.437 30.1628 123.344 30.3722C123.251 30.5816 123.112 30.7673 122.937 30.9156C122.559 31.2317 122.077 31.3969 121.585 31.3793H119.887ZM120.57 26.1718V28.0514H121.268C121.585 28.0696 121.897 27.9739 122.149 27.7817C122.257 27.6876 122.342 27.57 122.398 27.4379C122.453 27.3058 122.478 27.1627 122.47 27.0196C122.47 26.4544 122.098 26.1718 121.354 26.1718H120.57ZM120.57 28.6642V30.7624H121.495C121.83 30.783 122.161 30.6814 122.427 30.4764C122.538 30.3804 122.625 30.2604 122.683 30.1256C122.741 29.9907 122.767 29.8445 122.76 29.698C122.76 29.0095 122.29 28.6642 121.354 28.6642H120.57Z" fill="white"/>
<path d="M119.887 31.3793V25.5548H121.544C121.975 25.5318 122.4 25.6621 122.743 25.9226C122.886 26.0387 123 26.1861 123.076 26.3533C123.153 26.5205 123.19 26.7031 123.185 26.8869C123.192 27.1951 123.098 27.4973 122.917 27.7469C122.732 27.9949 122.473 28.1774 122.177 28.2679V28.2842C122.535 28.3131 122.871 28.4706 123.121 28.7276C123.363 28.9948 123.49 29.3462 123.475 29.7061C123.482 29.9352 123.437 30.1628 123.344 30.3722C123.251 30.5816 123.112 30.7673 122.937 30.9156C122.559 31.2317 122.077 31.3969 121.585 31.3793H119.887ZM120.57 26.1718V28.0514H121.268C121.585 28.0696 121.897 27.9739 122.149 27.7817C122.257 27.6876 122.342 27.57 122.398 27.4379C122.453 27.3058 122.478 27.1627 122.47 27.0196C122.47 26.4544 122.098 26.1718 121.354 26.1718H120.57ZM120.57 28.6642V30.7624H121.495C121.83 30.783 122.161 30.6814 122.427 30.4764C122.538 30.3804 122.625 30.2604 122.683 30.1256C122.741 29.9907 122.767 29.8445 122.76 29.698C122.76 29.0095 122.29 28.6642 121.354 28.6642H120.57Z" fill="black" fill-opacity="0.75"/>
<path d="M127.541 31.3796H126.875V30.7279H126.858C126.737 30.9602 126.553 31.1538 126.326 31.2864C126.1 31.4189 125.841 31.4852 125.579 31.4777C125.224 31.4989 124.875 31.38 124.607 31.1467C124.489 31.0349 124.397 30.8992 124.337 30.7487C124.276 30.5982 124.248 30.4364 124.256 30.2743C124.256 29.4953 124.712 29.0431 125.626 28.9178L126.875 28.7421C126.875 28.0353 126.589 27.6818 126.017 27.6818C125.517 27.6811 125.034 27.8635 124.66 28.1946V27.5225C125.084 27.2585 125.575 27.123 126.074 27.1323C127.053 27.1323 127.542 27.6498 127.541 28.6849V31.3796ZM126.875 29.2754L125.872 29.4122C125.624 29.4351 125.385 29.514 125.173 29.6431C125.088 29.7129 125.022 29.8027 124.981 29.9044C124.94 30.006 124.925 30.1164 124.938 30.2253C124.935 30.3192 124.953 30.4126 124.99 30.4988C125.028 30.585 125.084 30.6618 125.154 30.7238C125.316 30.8581 125.523 30.9267 125.733 30.9158C125.886 30.9198 126.038 30.8908 126.179 30.8309C126.32 30.771 126.446 30.6815 126.55 30.5685C126.768 30.329 126.884 30.0138 126.873 29.6901L126.875 29.2754Z" fill="white"/>
<path d="M127.541 31.3796H126.875V30.7279H126.858C126.737 30.9602 126.553 31.1538 126.326 31.2864C126.1 31.4189 125.841 31.4852 125.579 31.4777C125.224 31.4989 124.875 31.38 124.607 31.1467C124.489 31.0349 124.397 30.8992 124.337 30.7487C124.276 30.5982 124.248 30.4364 124.256 30.2743C124.256 29.4953 124.712 29.0431 125.626 28.9178L126.875 28.7421C126.875 28.0353 126.589 27.6818 126.017 27.6818C125.517 27.6811 125.034 27.8635 124.66 28.1946V27.5225C125.084 27.2585 125.575 27.123 126.074 27.1323C127.053 27.1323 127.542 27.6498 127.541 28.6849V31.3796ZM126.875 29.2754L125.872 29.4122C125.624 29.4351 125.385 29.514 125.173 29.6431C125.088 29.7129 125.022 29.8027 124.981 29.9044C124.94 30.006 124.925 30.1164 124.938 30.2253C124.935 30.3192 124.953 30.4126 124.99 30.4988C125.028 30.585 125.084 30.6618 125.154 30.7238C125.316 30.8581 125.523 30.9267 125.733 30.9158C125.886 30.9198 126.038 30.8908 126.179 30.8309C126.32 30.771 126.446 30.6815 126.55 30.5685C126.768 30.329 126.884 30.0138 126.873 29.6901L126.875 29.2754Z" fill="black" fill-opacity="0.75"/>
<path d="M132.248 31.3796H131.582V29.0078C131.582 28.1238 131.259 27.6819 130.615 27.6819C130.46 27.6805 130.306 27.7135 130.165 27.7785C130.023 27.8435 129.898 27.9388 129.798 28.0578C129.576 28.3234 129.459 28.6616 129.471 29.0078V31.3796H128.795V27.2202H129.461V27.9107H129.477C129.61 27.6658 129.807 27.4625 130.048 27.3233C130.289 27.184 130.564 27.1144 130.842 27.1221C131.038 27.1098 131.235 27.1433 131.416 27.2199C131.597 27.2965 131.758 27.4141 131.886 27.5634C132.15 27.9329 132.278 28.3828 132.248 28.8361V31.3796Z" fill="white"/>
<path d="M132.248 31.3796H131.582V29.0078C131.582 28.1238 131.259 27.6819 130.615 27.6819C130.46 27.6805 130.306 27.7135 130.165 27.7785C130.023 27.8435 129.898 27.9388 129.798 28.0578C129.576 28.3234 129.459 28.6616 129.471 29.0078V31.3796H128.795V27.2202H129.461V27.9107H129.477C129.61 27.6658 129.807 27.4625 130.048 27.3233C130.289 27.184 130.564 27.1144 130.842 27.1221C131.038 27.1098 131.235 27.1433 131.416 27.2199C131.597 27.2965 131.758 27.4141 131.886 27.5634C132.15 27.9329 132.278 28.3828 132.248 28.8361V31.3796Z" fill="black" fill-opacity="0.75"/>
<path d="M136.957 31.3798H136.027L134.189 29.3797H134.172V31.3798H133.506V25.2202H134.172V29.1243H134.189L135.935 27.2203H136.808L134.879 29.2265L136.957 31.3798Z" fill="white"/>
<path d="M136.957 31.3798H136.027L134.189 29.3797H134.172V31.3798H133.506V25.2202H134.172V29.1243H134.189L135.935 27.2203H136.808L134.879 29.2265L136.957 31.3798Z" fill="black" fill-opacity="0.75"/>
<path d="M144.363 30.9811C143.767 31.3146 143.094 31.4858 142.412 31.4775C142.038 31.4923 141.665 31.4283 141.318 31.2896C140.97 31.1509 140.656 30.9407 140.395 30.6726C139.883 30.1346 139.626 29.425 139.625 28.5438C139.61 28.1351 139.679 27.7276 139.826 27.3459C139.973 26.9643 140.196 26.6163 140.481 26.3231C140.763 26.0373 141.101 25.8128 141.473 25.6637C141.846 25.5146 142.245 25.4442 142.647 25.4569C143.195 25.4395 143.741 25.5449 144.244 25.7654V26.5213C143.741 26.2144 143.16 26.059 142.571 26.0739C142.271 26.0643 141.972 26.1196 141.695 26.2359C141.417 26.3523 141.169 26.527 140.965 26.7481C140.537 27.2268 140.313 27.8534 140.34 28.4948C140.34 29.2316 140.533 29.8105 140.92 30.2313C141.122 30.4435 141.368 30.6098 141.64 30.7187C141.912 30.8276 142.205 30.8767 142.497 30.8626C142.908 30.8732 143.314 30.7798 143.678 30.5909V28.9565H142.403V28.3436H144.363V30.9811Z" fill="white"/>
<path d="M144.363 30.9811C143.767 31.3146 143.094 31.4858 142.412 31.4775C142.038 31.4923 141.665 31.4283 141.318 31.2896C140.97 31.1509 140.656 30.9407 140.395 30.6726C139.883 30.1346 139.626 29.425 139.625 28.5438C139.61 28.1351 139.679 27.7276 139.826 27.3459C139.973 26.9643 140.196 26.6163 140.481 26.3231C140.763 26.0373 141.101 25.8128 141.473 25.6637C141.846 25.5146 142.245 25.4442 142.647 25.4569C143.195 25.4395 143.741 25.5449 144.244 25.7654V26.5213C143.741 26.2144 143.16 26.059 142.571 26.0739C142.271 26.0643 141.972 26.1196 141.695 26.2359C141.417 26.3523 141.169 26.527 140.965 26.7481C140.537 27.2268 140.313 27.8534 140.34 28.4948C140.34 29.2316 140.533 29.8105 140.92 30.2313C141.122 30.4435 141.368 30.6098 141.64 30.7187C141.912 30.8276 142.205 30.8767 142.497 30.8626C142.908 30.8732 143.314 30.7798 143.678 30.5909V28.9565H142.403V28.3436H144.363V30.9811Z" fill="black" fill-opacity="0.75"/>
<path d="M147.794 27.8938C147.646 27.7949 147.468 27.7475 147.29 27.759C147.146 27.7616 147.006 27.8005 146.881 27.8719C146.756 27.9433 146.652 28.045 146.577 28.1676C146.37 28.4947 146.27 28.8782 146.291 29.2647V31.3853H145.629V27.2197H146.295V28.0757H146.311C146.388 27.8107 146.539 27.5733 146.746 27.3913C146.927 27.2329 147.16 27.1458 147.4 27.1461C147.539 27.1386 147.678 27.158 147.809 27.2033L147.794 27.8938Z" fill="white"/>
<path d="M147.794 27.8938C147.646 27.7949 147.468 27.7475 147.29 27.759C147.146 27.7616 147.006 27.8005 146.881 27.8719C146.756 27.9433 146.652 28.045 146.577 28.1676C146.37 28.4947 146.27 28.8782 146.291 29.2647V31.3853H145.629V27.2197H146.295V28.0757H146.311C146.388 27.8107 146.539 27.5733 146.746 27.3913C146.927 27.2329 147.16 27.1458 147.4 27.1461C147.539 27.1386 147.678 27.158 147.809 27.2033L147.794 27.8938Z" fill="black" fill-opacity="0.75"/>
<path d="M150.256 31.4776C149.983 31.49 149.711 31.4443 149.457 31.3436C149.203 31.2428 148.973 31.0894 148.783 30.8933C148.403 30.4714 148.204 29.9163 148.231 29.3488C148.231 28.6501 148.423 28.1026 148.806 27.7145C149.009 27.5148 149.251 27.3594 149.517 27.2581C149.783 27.1568 150.068 27.1119 150.352 27.1261C150.621 27.1107 150.89 27.1539 151.141 27.2526C151.392 27.3514 151.618 27.5034 151.805 27.6981C152.152 28.0801 152.328 28.6093 152.328 29.2875C152.356 29.8721 152.153 30.4444 151.764 30.8811C151.569 31.0818 151.334 31.2388 151.074 31.3417C150.814 31.4445 150.535 31.4909 150.256 31.4776ZM150.303 27.6818C150.111 27.6725 149.919 27.7071 149.742 27.7828C149.565 27.8585 149.408 27.9735 149.282 28.119C149.015 28.4623 148.882 28.8905 148.908 29.3243C148.884 29.746 149.019 30.1613 149.286 30.4888C149.413 30.6317 149.571 30.7443 149.748 30.8181C149.925 30.892 150.116 30.9254 150.307 30.9158C150.494 30.9265 150.681 30.8944 150.853 30.8218C151.026 30.7492 151.179 30.6381 151.302 30.497C151.554 30.1536 151.676 29.7328 151.649 29.308C151.677 28.8787 151.554 28.4533 151.302 28.1047C151.179 27.9622 151.025 27.85 150.852 27.7767C150.679 27.7033 150.491 27.6709 150.303 27.6818Z" fill="white"/>
<path d="M150.256 31.4776C149.983 31.49 149.711 31.4443 149.457 31.3436C149.203 31.2428 148.973 31.0894 148.783 30.8933C148.403 30.4714 148.204 29.9163 148.231 29.3488C148.231 28.6501 148.423 28.1026 148.806 27.7145C149.009 27.5148 149.251 27.3594 149.517 27.2581C149.783 27.1568 150.068 27.1119 150.352 27.1261C150.621 27.1107 150.89 27.1539 151.141 27.2526C151.392 27.3514 151.618 27.5034 151.805 27.6981C152.152 28.0801 152.328 28.6093 152.328 29.2875C152.356 29.8721 152.153 30.4444 151.764 30.8811C151.569 31.0818 151.334 31.2388 151.074 31.3417C150.814 31.4445 150.535 31.4909 150.256 31.4776ZM150.303 27.6818C150.111 27.6725 149.919 27.7071 149.742 27.7828C149.565 27.8585 149.408 27.9735 149.282 28.119C149.015 28.4623 148.882 28.8905 148.908 29.3243C148.884 29.746 149.019 30.1613 149.286 30.4888C149.413 30.6317 149.571 30.7443 149.748 30.8181C149.925 30.892 150.116 30.9254 150.307 30.9158C150.494 30.9265 150.681 30.8944 150.853 30.8218C151.026 30.7492 151.179 30.6381 151.302 30.497C151.554 30.1536 151.676 29.7328 151.649 29.308C151.677 28.8787 151.554 28.4533 151.302 28.1047C151.179 27.9622 151.025 27.85 150.852 27.7767C150.679 27.7033 150.491 27.6709 150.303 27.6818Z" fill="black" fill-opacity="0.75"/>
<path d="M156.755 31.3797H156.089V30.7218H156.073C155.955 30.9584 155.77 31.1556 155.542 31.2898C155.314 31.4239 155.052 31.4892 154.788 31.4777C153.797 31.4777 153.303 30.8853 153.303 29.7065V27.2202H153.965V29.6003C153.965 30.4774 154.3 30.9159 154.972 30.9159C155.124 30.9196 155.275 30.8892 155.414 30.827C155.553 30.7648 155.676 30.6723 155.775 30.5564C155.992 30.2928 156.104 29.958 156.089 29.6166V27.2202H156.755V31.3797Z" fill="white"/>
<path d="M156.755 31.3797H156.089V30.7218H156.073C155.955 30.9584 155.77 31.1556 155.542 31.2898C155.314 31.4239 155.052 31.4892 154.788 31.4777C153.797 31.4777 153.303 30.8853 153.303 29.7065V27.2202H153.965V29.6003C153.965 30.4774 154.3 30.9159 154.972 30.9159C155.124 30.9196 155.275 30.8892 155.414 30.827C155.553 30.7648 155.676 30.6723 155.775 30.5564C155.992 30.2928 156.104 29.958 156.089 29.6166V27.2202H156.755V31.3797Z" fill="black" fill-opacity="0.75"/>
<path d="M158.782 30.7769H158.765V33.2918H158.091V27.2201H158.757V27.9515H158.774C158.912 27.6943 159.119 27.4805 159.371 27.3341C159.624 27.1876 159.912 27.1142 160.204 27.122C160.442 27.1101 160.68 27.1543 160.897 27.2512C161.115 27.3481 161.307 27.4949 161.458 27.6798C161.779 28.111 161.938 28.6407 161.91 29.1772C161.94 29.7762 161.761 30.367 161.403 30.8484C161.237 31.0546 161.024 31.219 160.783 31.3282C160.542 31.4375 160.278 31.4887 160.014 31.4776C159.764 31.4817 159.519 31.4189 159.302 31.2956C159.085 31.1723 158.906 30.9932 158.782 30.7769ZM158.765 29.0996V29.6819C158.758 30.006 158.879 30.3199 159.101 30.5562C159.22 30.6784 159.364 30.7736 159.524 30.8353C159.683 30.897 159.854 30.9238 160.024 30.9139C160.195 30.904 160.361 30.8577 160.512 30.778C160.664 30.6984 160.796 30.5872 160.9 30.4521C161.15 30.071 161.27 29.6197 161.244 29.165C161.267 28.7758 161.153 28.3907 160.923 28.0761C160.819 27.9474 160.686 27.8447 160.535 27.7763C160.385 27.7078 160.22 27.6755 160.055 27.6818C159.878 27.6757 159.702 27.7092 159.54 27.7799C159.378 27.8507 159.234 27.9567 159.119 28.0904C158.88 28.3714 158.754 28.731 158.765 29.0996Z" fill="white"/>
<path d="M158.782 30.7769H158.765V33.2918H158.091V27.2201H158.757V27.9515H158.774C158.912 27.6943 159.119 27.4805 159.371 27.3341C159.624 27.1876 159.912 27.1142 160.204 27.122C160.442 27.1101 160.68 27.1543 160.897 27.2512C161.115 27.3481 161.307 27.4949 161.458 27.6798C161.779 28.111 161.938 28.6407 161.91 29.1772C161.94 29.7762 161.761 30.367 161.403 30.8484C161.237 31.0546 161.024 31.219 160.783 31.3282C160.542 31.4375 160.278 31.4887 160.014 31.4776C159.764 31.4817 159.519 31.4189 159.302 31.2956C159.085 31.1723 158.906 30.9932 158.782 30.7769ZM158.765 29.0996V29.6819C158.758 30.006 158.879 30.3199 159.101 30.5562C159.22 30.6784 159.364 30.7736 159.524 30.8353C159.683 30.897 159.854 30.9238 160.024 30.9139C160.195 30.904 160.361 30.8577 160.512 30.778C160.664 30.6984 160.796 30.5872 160.9 30.4521C161.15 30.071 161.27 29.6197 161.244 29.165C161.267 28.7758 161.153 28.3907 160.923 28.0761C160.819 27.9474 160.686 27.8447 160.535 27.7763C160.385 27.7078 160.22 27.6755 160.055 27.6818C159.878 27.6757 159.702 27.7092 159.54 27.7799C159.378 27.8507 159.234 27.9567 159.119 28.0904C158.88 28.3714 158.754 28.731 158.765 29.0996Z" fill="black" fill-opacity="0.75"/>
<path d="M37.8341 19.702C35.2947 19.702 33.6951 18.7602 33.6011 18.6192L34.4938 16.9256C35.4809 17.4445 36.578 17.7191 37.6931 17.7264C39.2928 17.7264 40.3265 16.8786 40.3265 15.7018C40.3368 15.4448 40.2818 15.1894 40.1668 14.9594C40.0518 14.7293 39.8804 14.5321 39.6687 14.3862C38.022 13.1154 33.789 13.3974 33.789 9.44628C33.789 6.85989 35.6277 5.36035 38.6329 5.36035C39.9747 5.36831 41.3018 5.63972 42.539 6.15915L41.9731 7.94674C40.9582 7.5957 39.8946 7.40546 38.8208 7.38289C37.5522 7.38289 36.4224 7.94675 36.4224 9.26446C36.4224 10.4902 37.5522 10.8171 39.4337 11.428C41.5033 12.0858 43.0089 12.9336 43.0089 15.3321C42.9619 18.0615 41.1274 19.7081 37.8341 19.7081" fill="white"/>
<path d="M37.8341 19.702C35.2947 19.702 33.6951 18.7602 33.6011 18.6192L34.4938 16.9256C35.4809 17.4445 36.578 17.7191 37.6931 17.7264C39.2928 17.7264 40.3265 16.8786 40.3265 15.7018C40.3368 15.4448 40.2818 15.1894 40.1668 14.9594C40.0518 14.7293 39.8804 14.5321 39.6687 14.3862C38.022 13.1154 33.789 13.3974 33.789 9.44628C33.789 6.85989 35.6277 5.36035 38.6329 5.36035C39.9747 5.36831 41.3018 5.63972 42.539 6.15915L41.9731 7.94674C40.9582 7.5957 39.8946 7.40546 38.8208 7.38289C37.5522 7.38289 36.4224 7.94675 36.4224 9.26446C36.4224 10.4902 37.5522 10.8171 39.4337 11.428C41.5033 12.0858 43.0089 12.9336 43.0089 15.3321C42.9619 18.0615 41.1274 19.7081 37.8341 19.7081" fill="black" fill-opacity="0.75"/>
<path d="M47.759 19.7589C46.8192 19.7589 46.1614 19.524 45.7364 19.146C44.9846 18.4882 44.9846 17.4524 44.9846 16.0816V11.2336H43.291V9.86891L44.9846 9.53999L45.3605 6.76361L47.524 6.3877V9.54408H50.5354L50.3004 11.2377H47.5669V16.3655C47.5669 17.1643 47.6139 17.8712 48.6967 17.8712C49.2605 17.8564 49.8176 17.7444 50.3433 17.5402L50.8602 18.9989C50.5783 19.0929 49.4485 19.7528 47.7549 19.7528" fill="white"/>
<path d="M47.759 19.7589C46.8192 19.7589 46.1614 19.524 45.7364 19.146C44.9846 18.4882 44.9846 17.4524 44.9846 16.0816V11.2336H43.291V9.86891L44.9846 9.53999L45.3605 6.76361L47.524 6.3877V9.54408H50.5354L50.3004 11.2377H47.5669V16.3655C47.5669 17.1643 47.6139 17.8712 48.6967 17.8712C49.2605 17.8564 49.8176 17.7444 50.3433 17.5402L50.8602 18.9989C50.5783 19.0929 49.4485 19.7528 47.7549 19.7528" fill="black" fill-opacity="0.75"/>
<path d="M57.2628 19.5142L57.0749 18.3844C56.8399 18.6194 55.7572 19.7021 54.2045 19.7021C52.6519 19.7021 51.4302 18.7133 51.4302 16.5968C51.4302 13.4915 54.6744 13.5324 56.9339 13.3976V12.8807C56.9339 11.7509 56.746 11.1871 55.2873 11.1871C54.1575 11.1871 52.9338 11.563 52.6989 11.61L52.276 10.1574C52.4639 10.0634 54.2515 9.26465 56.1331 9.26465C59.2854 9.26465 59.3793 11.0053 59.3793 13.2157V19.4733H57.2628V19.5142ZM56.9339 14.6683C54.8154 14.8092 53.8286 15.1382 53.8286 16.5069C53.8286 17.6367 54.4864 17.8717 55.1463 17.8717C56.0861 17.8717 56.699 17.2588 56.8869 17.1178L56.9339 14.6662V14.6683Z" fill="white"/>
<path d="M57.2628 19.5142L57.0749 18.3844C56.8399 18.6194 55.7572 19.7021 54.2045 19.7021C52.6519 19.7021 51.4302 18.7133 51.4302 16.5968C51.4302 13.4915 54.6744 13.5324 56.9339 13.3976V12.8807C56.9339 11.7509 56.746 11.1871 55.2873 11.1871C54.1575 11.1871 52.9338 11.563 52.6989 11.61L52.276 10.1574C52.4639 10.0634 54.2515 9.26465 56.1331 9.26465C59.2854 9.26465 59.3793 11.0053 59.3793 13.2157V19.4733H57.2628V19.5142ZM56.9339 14.6683C54.8154 14.8092 53.8286 15.1382 53.8286 16.5069C53.8286 17.6367 54.4864 17.8717 55.1463 17.8717C56.0861 17.8717 56.699 17.2588 56.8869 17.1178L56.9339 14.6662V14.6683Z" fill="black" fill-opacity="0.75"/>
<path d="M67.5654 19.5141V13.4914C67.5654 12.2227 67.4244 11.4219 66.2947 11.4219C65.3529 11.4219 64.4131 12.0797 63.9902 12.3167V19.5141H61.459V9.5444H63.6225L63.8104 10.8621C64.3763 10.3902 65.788 9.35645 67.2447 9.35645C69.9741 9.35645 70.068 11.426 70.068 13.0338V19.5141H67.5654Z" fill="white"/>
<path d="M67.5654 19.5141V13.4914C67.5654 12.2227 67.4244 11.4219 66.2947 11.4219C65.3529 11.4219 64.4131 12.0797 63.9902 12.3167V19.5141H61.459V9.5444H63.6225L63.8104 10.8621C64.3763 10.3902 65.788 9.35645 67.2447 9.35645C69.9741 9.35645 70.068 11.426 70.068 13.0338V19.5141H67.5654Z" fill="black" fill-opacity="0.75"/>
<path d="M77.3491 19.7018C76.8105 19.6896 76.2814 19.5563 75.8012 19.312C75.3209 19.0676 74.9018 18.7184 74.5748 18.2901L74.3848 19.4669H72.1743V5.11916L74.7158 4.74121V10.5289C75.3736 10.057 76.5034 9.30315 77.6781 9.30315C79.9376 9.30315 81.2063 11.1847 81.2063 14.431C81.2532 17.8182 79.6536 19.6998 77.3491 19.6998M76.7362 11.3727C75.7944 11.3727 75.0426 11.9365 74.7607 12.1245V16.5475C74.9963 16.8632 75.3011 17.1207 75.6517 17.3002C76.0023 17.4798 76.3894 17.5766 76.7832 17.5833C77.864 17.5833 78.6219 16.5945 78.6219 14.5719C78.6219 12.3145 77.962 11.3727 76.7403 11.3727" fill="white"/>
<path d="M77.3491 19.7018C76.8105 19.6896 76.2814 19.5563 75.8012 19.312C75.3209 19.0676 74.9018 18.7184 74.5748 18.2901L74.3848 19.4669H72.1743V5.11916L74.7158 4.74121V10.5289C75.3736 10.057 76.5034 9.30315 77.6781 9.30315C79.9376 9.30315 81.2063 11.1847 81.2063 14.431C81.2532 17.8182 79.6536 19.6998 77.3491 19.6998M76.7362 11.3727C75.7944 11.3727 75.0426 11.9365 74.7607 12.1245V16.5475C74.9963 16.8632 75.3011 17.1207 75.6517 17.3002C76.0023 17.4798 76.3894 17.5766 76.7832 17.5833C77.864 17.5833 78.6219 16.5945 78.6219 14.5719C78.6219 12.3145 77.962 11.3727 76.7403 11.3727" fill="black" fill-opacity="0.75"/>
<path d="M84.1706 7.84655C83.7837 7.84655 83.4127 7.69287 83.1391 7.41932C82.8656 7.14576 82.7119 6.77474 82.7119 6.38787C82.7119 6.00101 82.8656 5.62999 83.1391 5.35643C83.4127 5.08288 83.7837 4.9292 84.1706 4.9292C84.3593 4.93159 84.5456 4.97129 84.7189 5.04602C84.8921 5.12076 85.0489 5.22904 85.1801 5.36463C85.3113 5.50022 85.4144 5.66045 85.4835 5.83606C85.5525 6.01168 85.5861 6.19922 85.5823 6.38787C85.5906 6.57768 85.5602 6.7672 85.4928 6.94484C85.4254 7.12248 85.3225 7.28452 85.1904 7.42105C85.0583 7.55758 84.8997 7.66572 84.7243 7.73888C84.549 7.81204 84.3606 7.84868 84.1706 7.84655ZM82.9101 9.54425H85.4515V19.5139H82.9101V9.54425Z" fill="white"/>
<path d="M84.1706 7.84655C83.7837 7.84655 83.4127 7.69287 83.1391 7.41932C82.8656 7.14576 82.7119 6.77474 82.7119 6.38787C82.7119 6.00101 82.8656 5.62999 83.1391 5.35643C83.4127 5.08288 83.7837 4.9292 84.1706 4.9292C84.3593 4.93159 84.5456 4.97129 84.7189 5.04602C84.8921 5.12076 85.0489 5.22904 85.1801 5.36463C85.3113 5.50022 85.4144 5.66045 85.4835 5.83606C85.5525 6.01168 85.5861 6.19922 85.5823 6.38787C85.5906 6.57768 85.5602 6.7672 85.4928 6.94484C85.4254 7.12248 85.3225 7.28452 85.1904 7.42105C85.0583 7.55758 84.8997 7.66572 84.7243 7.73888C84.549 7.81204 84.3606 7.84868 84.1706 7.84655ZM82.9101 9.54425H85.4515V19.5139H82.9101V9.54425Z" fill="black" fill-opacity="0.75"/>
<path d="M91.5559 19.7018C88.7795 19.7018 87.0879 18.0082 87.0879 14.574C87.0879 11.3277 88.6855 9.30518 91.6498 9.30518C93.2965 9.30518 94.7551 9.91807 94.9901 10.104L94.4262 11.5627C93.691 11.3451 92.9325 11.2162 92.1667 11.1786C90.614 11.1786 89.7151 12.2613 89.7151 14.4718C89.7151 16.5414 90.4669 17.6711 92.1136 17.6711C93.2433 17.6711 94.0421 17.2462 94.4671 17.1052L95.2189 18.4229C94.159 19.226 92.8711 19.671 91.5415 19.6936" fill="white"/>
<path d="M91.5559 19.7018C88.7795 19.7018 87.0879 18.0082 87.0879 14.574C87.0879 11.3277 88.6855 9.30518 91.6498 9.30518C93.2965 9.30518 94.7551 9.91807 94.9901 10.104L94.4262 11.5627C93.691 11.3451 92.9325 11.2162 92.1667 11.1786C90.614 11.1786 89.7151 12.2613 89.7151 14.4718C89.7151 16.5414 90.4669 17.6711 92.1136 17.6711C93.2433 17.6711 94.0421 17.2462 94.4671 17.1052L95.2189 18.4229C94.159 19.226 92.8711 19.671 91.5415 19.6936" fill="black" fill-opacity="0.75"/>
</svg>
