<svg width="137" height="34" viewBox="0 0 137 34" fill="none" xmlns="http://www.w3.org/2000/svg">
<path d="M24.8116 12.5647H9.10212V9.25684H24.8116V12.5647ZM24.6739 25.2421H21.173V15.044H24.6739V25.2421ZM18.6931 25.2421H15.1925V15.044H18.6931V25.2421ZM12.7401 25.2421H9.23975V15.044H12.7401V25.2421ZM16.9429 1.53809C8.26704 1.53809 1.23389 8.571 1.23389 17.2467C1.23389 25.9226 8.26704 32.9559 16.9429 32.9559C25.6189 32.9559 32.6518 25.9226 32.6518 17.2467C32.6518 8.571 25.6189 1.53809 16.9429 1.53809Z" fill="white"/>
<path d="M24.8116 12.5647H9.10212V9.25684H24.8116V12.5647ZM24.6739 25.2421H21.173V15.044H24.6739V25.2421ZM18.6931 25.2421H15.1925V15.044H18.6931V25.2421ZM12.7401 25.2421H9.23975V15.044H12.7401V25.2421ZM16.9429 1.53809C8.26704 1.53809 1.23389 8.571 1.23389 17.2467C1.23389 25.9226 8.26704 32.9559 16.9429 32.9559C25.6189 32.9559 32.6518 25.9226 32.6518 17.2467C32.6518 8.571 25.6189 1.53809 16.9429 1.53809Z" fill="black" fill-opacity="0.75"/>
<path d="M129.573 15.8017C131.235 15.8017 131.553 17.1807 131.625 18.5253H127.698C127.733 17.3219 128.088 15.8017 129.573 15.8017ZM129.785 23.5472C128.017 23.5472 127.698 22.0262 127.698 20.542H135.057C135.057 16.9681 133.783 13.7854 129.645 13.7854C126.071 13.7854 124.268 16.6856 124.268 19.9756C124.268 23.4059 126.319 25.5639 129.749 25.5639C132.085 25.5639 134.489 24.5747 134.667 21.9561H131.696C131.482 23.0164 130.883 23.5472 129.785 23.5472ZM116.202 16.1542H113.726V11.769H116.236C117.652 11.769 118.819 12.3689 118.819 13.9266C118.819 15.5176 117.652 16.1542 116.202 16.1542ZM118.96 17.3219C120.942 16.7562 122.428 15.5539 122.428 13.3608C122.428 10.2824 119.562 9.25744 116.909 9.25744H110.295V25.2461H113.726V18.7728H116.414C119.492 18.7728 118.749 23.0526 119.243 25.2461H122.994C121.294 22.2388 123.348 18.1709 118.96 17.3219ZM103.326 17.0388H100.354C100.283 16.2248 99.5401 15.8017 98.763 15.8017C98.0551 15.8017 97.0293 16.0136 97.0645 16.9331C97.1 17.6407 97.8785 17.8527 98.4437 17.9934L99.7182 18.3134C101.664 18.7373 103.892 19.5506 103.892 21.8854C103.892 24.7148 100.99 25.5639 98.6556 25.5639C96.3567 25.5639 94.093 24.5386 93.9164 22.0624H96.994C97.1 23.0526 97.8785 23.5472 98.8337 23.5472C99.6829 23.5472 100.778 23.1939 100.778 22.1686C100.778 20.0462 94.1283 21.5666 94.1283 17.2513C94.1283 14.6339 96.7466 13.7854 98.9396 13.7854C100.956 13.7854 102.972 14.5986 103.29 16.7918L103.326 17.0388ZM92.3959 17.0388H89.4244C89.3523 16.2248 88.6105 15.8017 87.832 15.8017C87.1241 15.8017 86.0982 16.0136 86.1334 16.9331C86.1688 17.6407 86.9474 17.8527 87.514 17.9934L88.7871 18.3134C90.7328 18.7373 92.9612 19.5506 92.9612 21.8854C92.9612 24.7148 90.0602 25.5639 87.726 25.5639C85.427 25.5639 83.1634 24.5386 82.9853 22.0624H86.0628C86.1688 23.0526 86.9474 23.5472 87.9026 23.5472C88.7518 23.5472 89.8483 23.1939 89.8483 22.1686C89.8483 20.0462 83.1972 21.5666 83.1972 17.2513C83.1972 14.6339 85.8155 13.7854 88.0085 13.7854C90.0249 13.7854 92.0413 14.5986 92.3592 16.7918L92.3959 17.0388ZM77.7146 12.0162H81.2529V9.25748H77.7146V12.0162ZM77.8206 25.2461H81.1455V14.1033H77.8206V25.2461ZM68.4467 25.2461L66.8557 19.9399C66.501 18.7728 66.2891 17.6045 66.0418 16.4374C65.8637 17.2869 65.7239 18.137 65.4751 18.9497L65.2279 19.8343L63.7428 25.2461H59.816L56.1721 14.1032H59.922L61.4792 19.9399L61.6911 20.7527L61.8677 21.5316C61.9384 21.9917 62.009 22.4512 62.0797 22.9107C62.2563 21.5666 62.5757 20.2938 62.9289 19.0203L64.3079 14.1032H68.1289L69.5786 19.2323C69.9331 20.4351 70.1805 21.6374 70.3572 22.8761L70.4632 22.2388C70.6044 21.1784 70.887 20.1525 71.2064 19.091L72.5854 14.1032H76.159L72.3383 25.2461H68.4467ZM54.8982 13.7495H51.6086C51.5736 12.1922 50.441 11.3083 48.9205 11.3083C47.6115 11.3083 46.0911 11.8029 46.0911 13.3608C46.0911 16.8975 55.3583 14.5633 55.3583 20.3644C55.3583 23.9377 52.2807 25.5639 49.0265 25.5639C45.3116 25.5639 42.2347 24.2565 42.2703 20.1876H45.7724C45.7724 21.9561 46.7275 23.1588 48.6018 23.1588C49.9817 23.1588 51.8214 22.6642 51.8214 21.0009C51.8214 17.2869 42.6948 19.7987 42.6948 13.8206C42.6948 10.2824 45.9843 8.90332 49.0265 8.90332C52.2453 8.90332 54.6861 10.4599 54.8982 13.7495Z" fill="white"/>
<path d="M129.573 15.8017C131.235 15.8017 131.553 17.1807 131.625 18.5253H127.698C127.733 17.3219 128.088 15.8017 129.573 15.8017ZM129.785 23.5472C128.017 23.5472 127.698 22.0262 127.698 20.542H135.057C135.057 16.9681 133.783 13.7854 129.645 13.7854C126.071 13.7854 124.268 16.6856 124.268 19.9756C124.268 23.4059 126.319 25.5639 129.749 25.5639C132.085 25.5639 134.489 24.5747 134.667 21.9561H131.696C131.482 23.0164 130.883 23.5472 129.785 23.5472ZM116.202 16.1542H113.726V11.769H116.236C117.652 11.769 118.819 12.3689 118.819 13.9266C118.819 15.5176 117.652 16.1542 116.202 16.1542ZM118.96 17.3219C120.942 16.7562 122.428 15.5539 122.428 13.3608C122.428 10.2824 119.562 9.25744 116.909 9.25744H110.295V25.2461H113.726V18.7728H116.414C119.492 18.7728 118.749 23.0526 119.243 25.2461H122.994C121.294 22.2388 123.348 18.1709 118.96 17.3219ZM103.326 17.0388H100.354C100.283 16.2248 99.5401 15.8017 98.763 15.8017C98.0551 15.8017 97.0293 16.0136 97.0645 16.9331C97.1 17.6407 97.8785 17.8527 98.4437 17.9934L99.7182 18.3134C101.664 18.7373 103.892 19.5506 103.892 21.8854C103.892 24.7148 100.99 25.5639 98.6556 25.5639C96.3567 25.5639 94.093 24.5386 93.9164 22.0624H96.994C97.1 23.0526 97.8785 23.5472 98.8337 23.5472C99.6829 23.5472 100.778 23.1939 100.778 22.1686C100.778 20.0462 94.1283 21.5666 94.1283 17.2513C94.1283 14.6339 96.7466 13.7854 98.9396 13.7854C100.956 13.7854 102.972 14.5986 103.29 16.7918L103.326 17.0388ZM92.3959 17.0388H89.4244C89.3523 16.2248 88.6105 15.8017 87.832 15.8017C87.1241 15.8017 86.0982 16.0136 86.1334 16.9331C86.1688 17.6407 86.9474 17.8527 87.514 17.9934L88.7871 18.3134C90.7328 18.7373 92.9612 19.5506 92.9612 21.8854C92.9612 24.7148 90.0602 25.5639 87.726 25.5639C85.427 25.5639 83.1634 24.5386 82.9853 22.0624H86.0628C86.1688 23.0526 86.9474 23.5472 87.9026 23.5472C88.7518 23.5472 89.8483 23.1939 89.8483 22.1686C89.8483 20.0462 83.1972 21.5666 83.1972 17.2513C83.1972 14.6339 85.8155 13.7854 88.0085 13.7854C90.0249 13.7854 92.0413 14.5986 92.3592 16.7918L92.3959 17.0388ZM77.7146 12.0162H81.2529V9.25748H77.7146V12.0162ZM77.8206 25.2461H81.1455V14.1033H77.8206V25.2461ZM68.4467 25.2461L66.8557 19.9399C66.501 18.7728 66.2891 17.6045 66.0418 16.4374C65.8637 17.2869 65.7239 18.137 65.4751 18.9497L65.2279 19.8343L63.7428 25.2461H59.816L56.1721 14.1032H59.922L61.4792 19.9399L61.6911 20.7527L61.8677 21.5316C61.9384 21.9917 62.009 22.4512 62.0797 22.9107C62.2563 21.5666 62.5757 20.2938 62.9289 19.0203L64.3079 14.1032H68.1289L69.5786 19.2323C69.9331 20.4351 70.1805 21.6374 70.3572 22.8761L70.4632 22.2388C70.6044 21.1784 70.887 20.1525 71.2064 19.091L72.5854 14.1032H76.159L72.3383 25.2461H68.4467ZM54.8982 13.7495H51.6086C51.5736 12.1922 50.441 11.3083 48.9205 11.3083C47.6115 11.3083 46.0911 11.8029 46.0911 13.3608C46.0911 16.8975 55.3583 14.5633 55.3583 20.3644C55.3583 23.9377 52.2807 25.5639 49.0265 25.5639C45.3116 25.5639 42.2347 24.2565 42.2703 20.1876H45.7724C45.7724 21.9561 46.7275 23.1588 48.6018 23.1588C49.9817 23.1588 51.8214 22.6642 51.8214 21.0009C51.8214 17.2869 42.6948 19.7987 42.6948 13.8206C42.6948 10.2824 45.9843 8.90332 49.0265 8.90332C52.2453 8.90332 54.6861 10.4599 54.8982 13.7495Z" fill="black" fill-opacity="0.75"/>
</svg>
