<svg width="146" height="34" viewBox="0 0 146 34" fill="none" xmlns="http://www.w3.org/2000/svg">
<path fill-rule="evenodd" clip-rule="evenodd" d="M75.0713 14.4119C73.8327 14.1048 73.2079 13.5225 71.4441 13.5225C67.718 13.5225 65.1919 15.6039 65.1919 19.3868V20.2585C65.1919 23.3578 67.2541 25.9643 70.1479 25.9643H71.2916C72.1826 25.9643 74.6464 25.3894 74.6464 24.7756V21.685C73.5892 21.9409 73.209 22.6359 71.4441 22.6359H70.9866C68.58 22.6359 68.7452 16.8509 70.9866 16.8509H71.6728C72.5871 16.8509 73.345 17.4706 73.9166 17.467L75.0713 14.4119Z" fill="white"/>
<path fill-rule="evenodd" clip-rule="evenodd" d="M75.0713 14.4119C73.8327 14.1048 73.2079 13.5225 71.4441 13.5225C67.718 13.5225 65.1919 15.6039 65.1919 19.3868V20.2585C65.1919 23.3578 67.2541 25.9643 70.1479 25.9643H71.2916C72.1826 25.9643 74.6464 25.3894 74.6464 24.7756V21.685C73.5892 21.9409 73.209 22.6359 71.4441 22.6359H70.9866C68.58 22.6359 68.7452 16.8509 70.9866 16.8509H71.6728C72.5871 16.8509 73.345 17.4706 73.9166 17.467L75.0713 14.4119Z" fill="black" fill-opacity="0.75"/>
<path fill-rule="evenodd" clip-rule="evenodd" d="M15.0978 14.3944H9.76057V21.7644H11.2855V16.5341C11.2855 16.3201 11.3219 16.3156 11.3617 16.1379C11.5327 16.0965 11.537 16.0586 11.7429 16.0586H15.479C15.6575 16.0586 15.784 16.1901 15.784 16.3756L15.8029 19.1496L15.7078 25.7268H8.92185C8.38004 25.7268 7.1922 24.205 6.80531 23.8058C6.30581 23.2904 5.26199 22.2066 5.26199 21.289V9.56034C5.433 9.51893 5.43731 9.48109 5.64323 9.48109H9.22679C9.45946 9.48109 9.53448 9.55719 9.68427 9.63959C9.68427 10.368 9.50388 11.4623 10.218 11.4623H15.7078V13.9982C15.7078 14.2451 15.3306 14.3944 15.0978 14.3944ZM21.1975 22.1607H22.7987V17.4851C22.7987 17.2996 22.9252 17.1681 23.1037 17.1681H26.7635C26.9695 17.1681 26.9737 17.2059 27.1447 17.2473C27.1846 17.4251 27.221 17.4296 27.221 17.6436V21.7645C27.221 22.7168 26.0581 23.3667 25.6055 23.9686C25.3437 24.3169 24.0596 25.7268 23.6374 25.7268H16.9277C16.752 25.7268 16.699 25.6717 16.699 25.4891V13.5227C16.699 12.8383 17.9755 11.7599 18.3954 11.3234C18.7714 10.9326 19.9 9.4811 20.4351 9.4811H26.7635C26.9695 9.4811 26.9737 9.51894 27.1447 9.56035C27.1846 9.73806 27.221 9.74255 27.221 9.95658V15.6624C27.221 15.8764 27.1846 15.8809 27.1447 16.0586C26.9737 16.1 26.9695 16.1379 26.7635 16.1379H23.1037C22.9327 16.1379 22.9363 16.0751 22.7987 15.9794V13.6812L22.5699 13.5227H21.1975L21.1975 22.1607ZM25.0098 33.5724C25.2599 33.5724 28.1325 30.4454 28.5361 30.0259C28.9397 29.6064 31.9482 26.6207 31.9482 26.3608V0.922363H0.534668V33.5724H0.610904H25.0098Z" fill="white"/>
<path fill-rule="evenodd" clip-rule="evenodd" d="M15.0978 14.3944H9.76057V21.7644H11.2855V16.5341C11.2855 16.3201 11.3219 16.3156 11.3617 16.1379C11.5327 16.0965 11.537 16.0586 11.7429 16.0586H15.479C15.6575 16.0586 15.784 16.1901 15.784 16.3756L15.8029 19.1496L15.7078 25.7268H8.92185C8.38004 25.7268 7.1922 24.205 6.80531 23.8058C6.30581 23.2904 5.26199 22.2066 5.26199 21.289V9.56034C5.433 9.51893 5.43731 9.48109 5.64323 9.48109H9.22679C9.45946 9.48109 9.53448 9.55719 9.68427 9.63959C9.68427 10.368 9.50388 11.4623 10.218 11.4623H15.7078V13.9982C15.7078 14.2451 15.3306 14.3944 15.0978 14.3944ZM21.1975 22.1607H22.7987V17.4851C22.7987 17.2996 22.9252 17.1681 23.1037 17.1681H26.7635C26.9695 17.1681 26.9737 17.2059 27.1447 17.2473C27.1846 17.4251 27.221 17.4296 27.221 17.6436V21.7645C27.221 22.7168 26.0581 23.3667 25.6055 23.9686C25.3437 24.3169 24.0596 25.7268 23.6374 25.7268H16.9277C16.752 25.7268 16.699 25.6717 16.699 25.4891V13.5227C16.699 12.8383 17.9755 11.7599 18.3954 11.3234C18.7714 10.9326 19.9 9.4811 20.4351 9.4811H26.7635C26.9695 9.4811 26.9737 9.51894 27.1447 9.56035C27.1846 9.73806 27.221 9.74255 27.221 9.95658V15.6624C27.221 15.8764 27.1846 15.8809 27.1447 16.0586C26.9737 16.1 26.9695 16.1379 26.7635 16.1379H23.1037C22.9327 16.1379 22.9363 16.0751 22.7987 15.9794V13.6812L22.5699 13.5227H21.1975L21.1975 22.1607ZM25.0098 33.5724C25.2599 33.5724 28.1325 30.4454 28.5361 30.0259C28.9397 29.6064 31.9482 26.6207 31.9482 26.3608V0.922363H0.534668V33.5724H0.610904H25.0098Z" fill="black" fill-opacity="0.75"/>
<path fill-rule="evenodd" clip-rule="evenodd" d="M56.4234 18.2772C56.4234 17.1973 57.1295 16.3753 58.1771 16.3753C59.156 16.3753 59.8545 17.2528 59.8545 18.2772H56.4234ZM62.6757 25.0925L62.5994 22.1603C60.8586 23.0285 56.4131 23.9661 56.3472 20.8924H63.4381V18.4357C63.4381 11.8486 52.3062 11.505 52.3062 19.3074V19.9414C52.3062 23.4327 54.4535 25.9642 57.7197 25.9642H59.4733C60.3888 25.9642 62.2219 25.5025 62.6757 25.0925Z" fill="white"/>
<path fill-rule="evenodd" clip-rule="evenodd" d="M56.4234 18.2772C56.4234 17.1973 57.1295 16.3753 58.1771 16.3753C59.156 16.3753 59.8545 17.2528 59.8545 18.2772H56.4234ZM62.6757 25.0925L62.5994 22.1603C60.8586 23.0285 56.4131 23.9661 56.3472 20.8924H63.4381V18.4357C63.4381 11.8486 52.3062 11.505 52.3062 19.3074V19.9414C52.3062 23.4327 54.4535 25.9642 57.7197 25.9642H59.4733C60.3888 25.9642 62.2219 25.5025 62.6757 25.0925Z" fill="black" fill-opacity="0.75"/>
<path fill-rule="evenodd" clip-rule="evenodd" d="M76.9341 25.7269H80.897L80.9752 19.9419C80.9752 18.6057 81.3222 16.8512 82.5001 16.8512H83.0338C83.931 16.8512 84.1775 18.0802 84.1775 19.0702V25.8062H88.2185V17.723C88.2185 15.1835 86.6328 13.5229 84.1775 13.5229C82.5009 13.5229 81.6499 14.1397 80.9752 15.1871L80.7485 15.2775L80.8226 15.0286L80.8989 12.4927V9.32275H76.9341V25.7269Z" fill="white"/>
<path fill-rule="evenodd" clip-rule="evenodd" d="M76.9341 25.7269H80.897L80.9752 19.9419C80.9752 18.6057 81.3222 16.8512 82.5001 16.8512H83.0338C83.931 16.8512 84.1775 18.0802 84.1775 19.0702V25.8062H88.2185V17.723C88.2185 15.1835 86.6328 13.5229 84.1775 13.5229C82.5009 13.5229 81.6499 14.1397 80.9752 15.1871L80.7485 15.2775L80.8226 15.0286L80.8989 12.4927V9.32275H76.9341V25.7269Z" fill="black" fill-opacity="0.75"/>
<path fill-rule="evenodd" clip-rule="evenodd" d="M105.602 22.0019C105.602 20.5021 107.052 20.417 108.499 20.417V21.2095C108.499 22.2691 107.765 23.0322 106.746 23.0322H106.67C106.049 23.0322 105.602 22.6294 105.602 22.0019ZM103.814 17.3074C104.41 17.3115 105.84 16.4546 106.974 16.4546H107.127C107.741 16.4546 108.423 16.9531 108.423 17.5641V18.1188H108.194C106.56 18.1188 104.991 18.2054 103.794 18.6966C102.74 19.1293 101.561 20.0911 101.561 21.5265V22.7152C101.561 24.2644 102.988 25.9643 104.382 25.9643H105.678C107.774 25.9643 108.307 24.4012 108.957 24.2209L109.669 25.7926L112.464 25.8058V18.1981C112.464 14.8222 110.681 13.5225 107.432 13.5225C106.797 13.5225 105.295 13.6832 104.829 13.8282C104.122 14.0481 103.236 14.4239 102.663 14.5717L103.814 17.3074Z" fill="white"/>
<path fill-rule="evenodd" clip-rule="evenodd" d="M105.602 22.0019C105.602 20.5021 107.052 20.417 108.499 20.417V21.2095C108.499 22.2691 107.765 23.0322 106.746 23.0322H106.67C106.049 23.0322 105.602 22.6294 105.602 22.0019ZM103.814 17.3074C104.41 17.3115 105.84 16.4546 106.974 16.4546H107.127C107.741 16.4546 108.423 16.9531 108.423 17.5641V18.1188H108.194C106.56 18.1188 104.991 18.2054 103.794 18.6966C102.74 19.1293 101.561 20.0911 101.561 21.5265V22.7152C101.561 24.2644 102.988 25.9643 104.382 25.9643H105.678C107.774 25.9643 108.307 24.4012 108.957 24.2209L109.669 25.7926L112.464 25.8058V18.1981C112.464 14.8222 110.681 13.5225 107.432 13.5225C106.797 13.5225 105.295 13.6832 104.829 13.8282C104.122 14.0481 103.236 14.4239 102.663 14.5717L103.814 17.3074Z" fill="black" fill-opacity="0.75"/>
<path fill-rule="evenodd" clip-rule="evenodd" d="M132.059 21.6853C132.059 20.5386 133.706 20.4174 134.88 20.4174V21.4476C134.88 22.2818 134.062 23.0326 133.279 23.0326H132.898C132.499 23.0326 132.059 22.6785 132.059 22.2401V21.6853ZM129.086 14.5531C129.228 14.8846 130.13 17.3267 130.306 17.3267C130.627 17.3267 132.302 16.455 133.432 16.455H133.508C134.468 16.455 134.88 17.0905 134.88 18.1192H134.575C131.375 18.1192 127.942 18.5922 127.942 21.8438V22.2401C127.942 24.5373 129.227 25.9647 131.449 25.9647H132.059C132.765 25.9647 133.514 25.6786 133.964 25.409C134.564 25.0505 134.898 24.4741 135.262 24.2212C135.616 24.4915 135.905 25.8062 136.253 25.8062H138.845V17.406C138.845 15.4584 137.054 13.6509 135.264 13.5991C134.022 13.563 133.102 13.5145 131.876 13.7284C131.261 13.8356 130.865 13.8954 130.372 14.0673C130.034 14.1851 129.359 14.5294 129.086 14.5531Z" fill="white"/>
<path fill-rule="evenodd" clip-rule="evenodd" d="M132.059 21.6853C132.059 20.5386 133.706 20.4174 134.88 20.4174V21.4476C134.88 22.2818 134.062 23.0326 133.279 23.0326H132.898C132.499 23.0326 132.059 22.6785 132.059 22.2401V21.6853ZM129.086 14.5531C129.228 14.8846 130.13 17.3267 130.306 17.3267C130.627 17.3267 132.302 16.455 133.432 16.455H133.508C134.468 16.455 134.88 17.0905 134.88 18.1192H134.575C131.375 18.1192 127.942 18.5922 127.942 21.8438V22.2401C127.942 24.5373 129.227 25.9647 131.449 25.9647H132.059C132.765 25.9647 133.514 25.6786 133.964 25.409C134.564 25.0505 134.898 24.4741 135.262 24.2212C135.616 24.4915 135.905 25.8062 136.253 25.8062H138.845V17.406C138.845 15.4584 137.054 13.6509 135.264 13.5991C134.022 13.563 133.102 13.5145 131.876 13.7284C131.261 13.8356 130.865 13.8954 130.372 14.0673C130.034 14.1851 129.359 14.5294 129.086 14.5531Z" fill="black" fill-opacity="0.75"/>
<path fill-rule="evenodd" clip-rule="evenodd" d="M145.555 25.7266V9.32227H141.59V25.7266H145.555Z" fill="white"/>
<path fill-rule="evenodd" clip-rule="evenodd" d="M145.555 25.7266V9.32227H141.59V25.7266H145.555Z" fill="black" fill-opacity="0.75"/>
<path fill-rule="evenodd" clip-rule="evenodd" d="M99.045 17.4848C99.1487 17.4848 100.238 14.7306 100.265 14.3942C99.8515 14.2941 99.2433 14.0096 98.7293 13.8506C97.9784 13.6184 97.7246 13.7183 96.9406 13.57C95.95 13.3827 94.1058 13.7923 93.4522 14.1285C91.6267 15.0673 90.4292 16.7587 90.4292 19.5453V20.3377C90.4292 23.6203 92.5363 25.9643 95.6902 25.9643H96.8338C98.0232 25.9643 99.0971 25.3667 99.8837 24.9341V21.6057C99.0396 22.07 98.1334 22.6359 96.8338 22.6359H96.2239C94.927 22.6359 94.4702 21.1941 94.4702 19.783C94.4702 18.5303 94.9946 16.8508 96.0714 16.8508H96.9864C97.7615 16.8508 98.7411 17.4848 99.045 17.4848Z" fill="white"/>
<path fill-rule="evenodd" clip-rule="evenodd" d="M99.045 17.4848C99.1487 17.4848 100.238 14.7306 100.265 14.3942C99.8515 14.2941 99.2433 14.0096 98.7293 13.8506C97.9784 13.6184 97.7246 13.7183 96.9406 13.57C95.95 13.3827 94.1058 13.7923 93.4522 14.1285C91.6267 15.0673 90.4292 16.7587 90.4292 19.5453V20.3377C90.4292 23.6203 92.5363 25.9643 95.6902 25.9643H96.8338C98.0232 25.9643 99.0971 25.3667 99.8837 24.9341V21.6057C99.0396 22.07 98.1334 22.6359 96.8338 22.6359H96.2239C94.927 22.6359 94.4702 21.1941 94.4702 19.783C94.4702 18.5303 94.9946 16.8508 96.0714 16.8508H96.9864C97.7615 16.8508 98.7411 17.4848 99.045 17.4848Z" fill="black" fill-opacity="0.75"/>
<path fill-rule="evenodd" clip-rule="evenodd" d="M119.174 18.9904C119.174 18.0077 119.524 16.8508 120.394 16.8508H121.004C122.04 16.8508 122.224 18.6728 122.224 19.8622V19.9414C122.224 21.0793 121.863 22.6358 120.852 22.6358C119.579 22.6358 119.174 21.6572 119.174 20.3376V18.9904ZM119.098 13.9979V9.32227H115.133V25.8057H118.107C118.492 25.8057 118.657 24.617 119.022 24.617C119.273 24.617 120.018 25.9642 122.072 25.9642H122.3C124.881 25.9642 126.265 23.1709 126.265 20.4169V18.6735C126.265 16.2377 124.701 13.5224 122.377 13.5224C119.822 13.5224 119.544 15.1208 119.022 15.2658L119.098 13.9979Z" fill="white"/>
<path fill-rule="evenodd" clip-rule="evenodd" d="M119.174 18.9904C119.174 18.0077 119.524 16.8508 120.394 16.8508H121.004C122.04 16.8508 122.224 18.6728 122.224 19.8622V19.9414C122.224 21.0793 121.863 22.6358 120.852 22.6358C119.579 22.6358 119.174 21.6572 119.174 20.3376V18.9904ZM119.098 13.9979V9.32227H115.133V25.8057H118.107C118.492 25.8057 118.657 24.617 119.022 24.617C119.273 24.617 120.018 25.9642 122.072 25.9642H122.3C124.881 25.9642 126.265 23.1709 126.265 20.4169V18.6735C126.265 16.2377 124.701 13.5224 122.377 13.5224C119.822 13.5224 119.544 15.1208 119.022 15.2658L119.098 13.9979Z" fill="black" fill-opacity="0.75"/>
<path fill-rule="evenodd" clip-rule="evenodd" d="M42.3941 16.8509H43.7665V21.7642C43.7665 24.2826 44.7279 25.9643 47.1213 25.9643H48.0363C48.6685 25.9643 50.7811 25.6255 50.7811 25.1719V22.319C50.4354 22.4027 49.3322 22.7152 49.0275 22.7152H48.875C48.2079 22.7152 47.8075 22.2991 47.8075 21.6057V16.8509H50.6286V13.7602H47.8075V11.3828H45.1389C45.0912 11.5957 44.2862 13.6128 44.176 13.7896C43.9416 14.1653 42.394 14.9559 42.394 15.2659L42.3941 16.8509Z" fill="white"/>
<path fill-rule="evenodd" clip-rule="evenodd" d="M42.3941 16.8509H43.7665V21.7642C43.7665 24.2826 44.7279 25.9643 47.1213 25.9643H48.0363C48.6685 25.9643 50.7811 25.6255 50.7811 25.1719V22.319C50.4354 22.4027 49.3322 22.7152 49.0275 22.7152H48.875C48.2079 22.7152 47.8075 22.2991 47.8075 21.6057V16.8509H50.6286V13.7602H47.8075V11.3828H45.1389C45.0912 11.5957 44.2862 13.6128 44.176 13.7896C43.9416 14.1653 42.394 14.9559 42.394 15.2659L42.3941 16.8509Z" fill="black" fill-opacity="0.75"/>
</svg>
