<svg width="106" height="37" viewBox="0 0 106 37" fill="none" xmlns="http://www.w3.org/2000/svg">
<g clip-path="url(#clip0_1049_2587)">
<path fill-rule="evenodd" clip-rule="evenodd" d="M30.5615 15.0032C30.5615 23.2892 23.8444 30.0063 15.5584 30.0063C7.27199 30.0063 0.554688 23.2892 0.554688 15.0032C0.554688 6.71718 7.27199 6.48499e-05 15.5584 6.48499e-05C23.8444 6.48499e-05 30.5615 6.71718 30.5615 15.0032Z" fill="white"/>
<path fill-rule="evenodd" clip-rule="evenodd" d="M30.5615 15.0032C30.5615 23.2892 23.8444 30.0063 15.5584 30.0063C7.27199 30.0063 0.554688 23.2892 0.554688 15.0032C0.554688 6.71718 7.27199 6.48499e-05 15.5584 6.48499e-05C23.8444 6.48499e-05 30.5615 6.71718 30.5615 15.0032Z" fill="black" fill-opacity="0.75"/>
<path fill-rule="evenodd" clip-rule="evenodd" d="M15.5583 21.43C12.2024 13.8231 9.74177 6.71679 9.74177 6.71679H4.59717C4.59717 6.71679 7.72841 15.8378 13.5448 27.2441H17.5719C23.3882 15.8378 26.5193 6.71679 26.5193 6.71679H21.3747C21.3747 6.71679 18.9142 13.8231 15.5583 21.43Z" fill="#F9F8F6"/>
<path fill-rule="evenodd" clip-rule="evenodd" d="M80.1716 14.2208C77.2633 14.2208 77.04 17.3527 77.04 17.3527H83.3027C83.3027 17.3527 83.0793 14.2208 80.1716 14.2208ZM87.1057 20.4839H77.04C77.04 20.4839 77.2633 23.8396 81.7375 23.8396C83.974 23.8396 86.2109 23.1679 86.2109 23.1679L86.6586 26.7468C86.6586 26.7468 84.4217 27.6421 81.2899 27.6421C76.8162 27.6421 72.7899 25.405 72.7899 19.1419C72.7899 14.2208 75.9217 11.0892 80.3953 11.0892C87.1057 11.0892 87.5527 17.7997 87.1057 20.4839ZM52.8786 15.1986L53.5713 11.5053C53.5713 11.5053 48.2231 9.88248 43.8762 12.8899V27.6631H48.4926V15.6598C50.3392 14.2754 52.8786 15.1986 52.8786 15.1986ZM33.6358 14.2208C30.7281 14.2208 30.5045 17.3527 30.5045 17.3527H36.7674C36.7674 17.3527 36.5441 14.2208 33.6358 14.2208ZM40.5698 20.4839H30.5045C30.5045 20.4839 30.7281 23.8396 35.2017 23.8396C37.438 23.8396 39.6751 23.1679 39.6751 23.1679L40.1228 26.7468C40.1228 26.7468 37.8857 27.6421 34.7541 27.6421C30.2804 27.6421 26.2539 25.405 26.2539 19.1419C26.2539 14.2208 29.3857 11.0892 33.8593 11.0892C40.5698 11.0892 41.0169 17.7997 40.5698 20.4839ZM64.1448 22.0169C61.8006 16.3905 60.629 11.0919 60.629 11.0919L55.9417 11.0925C55.9417 11.0925 58.2856 20.1413 62.2705 27.6393H66.019C70.0041 20.1413 72.3481 11.0938 72.3481 11.0938H67.6605C67.6605 11.0938 66.4889 16.3905 64.1448 22.0169Z" fill="white"/>
<path fill-rule="evenodd" clip-rule="evenodd" d="M80.1716 14.2208C77.2633 14.2208 77.04 17.3527 77.04 17.3527H83.3027C83.3027 17.3527 83.0793 14.2208 80.1716 14.2208ZM87.1057 20.4839H77.04C77.04 20.4839 77.2633 23.8396 81.7375 23.8396C83.974 23.8396 86.2109 23.1679 86.2109 23.1679L86.6586 26.7468C86.6586 26.7468 84.4217 27.6421 81.2899 27.6421C76.8162 27.6421 72.7899 25.405 72.7899 19.1419C72.7899 14.2208 75.9217 11.0892 80.3953 11.0892C87.1057 11.0892 87.5527 17.7997 87.1057 20.4839ZM52.8786 15.1986L53.5713 11.5053C53.5713 11.5053 48.2231 9.88248 43.8762 12.8899V27.6631H48.4926V15.6598C50.3392 14.2754 52.8786 15.1986 52.8786 15.1986ZM33.6358 14.2208C30.7281 14.2208 30.5045 17.3527 30.5045 17.3527H36.7674C36.7674 17.3527 36.5441 14.2208 33.6358 14.2208ZM40.5698 20.4839H30.5045C30.5045 20.4839 30.7281 23.8396 35.2017 23.8396C37.438 23.8396 39.6751 23.1679 39.6751 23.1679L40.1228 26.7468C40.1228 26.7468 37.8857 27.6421 34.7541 27.6421C30.2804 27.6421 26.2539 25.405 26.2539 19.1419C26.2539 14.2208 29.3857 11.0892 33.8593 11.0892C40.5698 11.0892 41.0169 17.7997 40.5698 20.4839ZM64.1448 22.0169C61.8006 16.3905 60.629 11.0919 60.629 11.0919L55.9417 11.0925C55.9417 11.0925 58.2856 20.1413 62.2705 27.6393H66.019C70.0041 20.1413 72.3481 11.0938 72.3481 11.0938H67.6605C67.6605 11.0938 66.4889 16.3905 64.1448 22.0169Z" fill="black" fill-opacity="0.75"/>
</g>
<defs>
<clipPath id="clip0_1049_2587">
<rect width="104.723" height="36.4943" fill="white" transform="translate(0.554688)"/>
</clipPath>
</defs>
</svg>
